<?xml version="1.0" standalone="no"?>
<!DOCTYPE svg PUBLIC "-//W3C//DTD SVG 20010904//EN"
 "http://www.w3.org/TR/2001/REC-SVG-20010904/DTD/svg10.dtd">
<svg version="1.0" xmlns="http://www.w3.org/2000/svg"
 width="700.000000pt" height="700.000000pt" viewBox="0 0 700.000000 700.000000"
 preserveAspectRatio="xMidYMid meet">
<metadata>
Created by potrace 1.14, written by Peter Selinger 2001-2017
</metadata>
<g transform="translate(0.000000,700.000000) scale(0.100000,-0.100000)"
fill="#000000" stroke="none">
<path d="M2150 6684 c-14 -2 -63 -9 -110 -15 -174 -23 -384 -92 -545 -180
-445 -242 -758 -658 -866 -1149 -27 -125 -34 -210 -33 -390 1 -263 53 -484
168 -723 45 -93 144 -252 194 -312 120 -145 259 -273 381 -353 31 -20 58 -39
61 -42 19 -19 222 -117 309 -149 127 -47 241 -74 411 -96 87 -12 316 -6 415
10 269 43 515 144 718 293 l54 41 29 -31 c64 -67 204 -184 294 -243 304 -200
645 -301 1012 -300 l128 0 0 -789 c0 -877 2 -846 -68 -981 -104 -197 -314
-311 -512 -277 -144 25 -277 125 -338 254 -29 60 -34 85 -47 235 -20 227 -212
403 -440 403 -80 0 -120 -16 -162 -63 -39 -44 -51 -81 -61 -184 -16 -168 -3
-363 34 -503 97 -364 389 -668 750 -780 67 -20 85 -24 179 -40 79 -13 242 -10
335 6 472 81 844 447 925 912 13 77 16 217 18 924 1 458 3 876 5 928 l4 95
126 62 c375 182 663 466 831 817 35 73 58 135 56 151 -5 50 -38 76 -140 108
-72 23 -101 28 -180 27 -87 0 -115 -5 -188 -35 -114 -46 -170 -88 -324 -244
l-153 -154 0 706 c0 720 -5 836 -40 982 -108 457 -446 762 -930 840 -86 14
-401 13 -485 -1 -161 -26 -354 -98 -452 -167 -29 -20 -56 -37 -59 -37 -3 0
-29 21 -57 46 -67 60 -241 176 -336 223 -162 82 -349 139 -536 164 -91 13
-312 19 -375 11z m327 -610 c201 -41 372 -142 590 -346 137 -128 177 -160 260
-202 212 -107 479 -36 508 134 7 39 24 55 111 105 126 72 286 89 424 46 209
-66 385 -264 420 -472 6 -41 11 -354 13 -856 2 -675 1 -793 -11 -798 -18 -7
-328 1 -362 9 -14 3 -38 8 -55 12 -232 46 -445 185 -614 400 -37 47 -40 54
-31 85 33 113 -15 212 -115 240 -157 44 -368 -14 -501 -139 -297 -276 -510
-375 -814 -376 -193 -1 -308 23 -460 96 -120 58 -193 109 -285 203 -209 211
-319 482 -317 781 1 131 10 195 49 324 99 332 371 597 738 719 153 51 316 63
452 35z"/>
<path d="M4089 5060 c-115 -39 -175 -160 -135 -272 53 -149 245 -191 355 -77
120 125 52 331 -119 358 -37 6 -62 4 -101 -9z"/>
</g>
</svg>
