<svg width="50" height="50" viewBox="0 0 50 50" fill="none" xmlns="http://www.w3.org/2000/svg">
<path d="M6.25 12.5V28.125" stroke="#847E8F" stroke-width="3" stroke-linecap="round" stroke-linejoin="round"/>
<path d="M10.586 42.1875C12.1494 39.7896 14.2863 37.8196 16.8032 36.456C19.3201 35.0923 22.1375 34.3782 25 34.3782C27.8626 34.3782 30.6799 35.0923 33.1968 36.456C35.7137 37.8196 37.8507 39.7896 39.4141 42.1875" stroke="#847E8F" stroke-width="3" stroke-linecap="round" stroke-linejoin="round"/>
<path d="M43.75 12.5L25 18.75L6.25 12.5L25 6.25L43.75 12.5Z" stroke="#847E8F" stroke-width="3" stroke-linecap="round" stroke-linejoin="round"/>
<path d="M33.0664 16.0547C34.4997 17.6199 35.4467 19.5683 35.7919 21.6623C36.1371 23.7563 35.8656 25.9056 35.0105 27.848C34.1554 29.7904 32.7537 31.4421 30.9762 32.6017C29.1988 33.7614 27.1223 34.3788 25 34.3788C22.8777 34.3788 20.8013 33.7614 19.0238 32.6017C17.2463 31.4421 15.8446 29.7904 14.9895 27.848C14.1344 25.9056 13.863 23.7563 14.2082 21.6623C14.5533 19.5683 15.5003 17.6199 16.9336 16.0547" stroke="#847E8F" stroke-width="3" stroke-linecap="round" stroke-linejoin="round"/>
</svg>
