<svg viewBox="0 0 242 58" fill="none" xmlns="http://www.w3.org/2000/svg">
<path d="M26.3296 0.966667C21.9736 2.70667 23.0384 10.0533 27.8784 8.79667C31.5568 7.83 31.2664 0.773334 26.3296 0.966667ZM27.2976 6.86333C24.9744 7.92667 25.3616 3.96333 26.3296 2.9C26.7168 2.80333 27.104 2.9 27.3944 2.9C27.6848 3.09333 27.8784 3.28667 28.1688 3.57667C28.4592 4.83333 28.3624 6.38 27.2976 6.86333Z" fill="white" stroke="white" stroke-width="0.25"/>
<path d="M19.9408 5.02661C22.1672 6.37994 23.6192 8.60328 25.4584 10.4399C25.168 11.8899 25.7488 18.1733 25.0712 18.8499C24.4904 18.8499 23.9096 18.7533 23.4256 18.7533C23.4256 16.7233 24.1032 12.0833 23.4256 10.6333C21.8768 9.27994 20.328 7.92661 18.7792 6.66994C18.7792 6.57328 18.7792 6.37994 18.7792 6.28328C19.1664 5.79994 19.36 5.41328 19.9408 5.02661Z" fill="white" stroke="white" stroke-width="0.25"/>
<path d="M30.3952 18.85C29.6208 18.85 28.9432 18.9466 28.6528 18.6566C28.6528 15.7566 28.7496 12.8566 28.7496 10.0533C29.1368 9.08664 32.912 5.89664 33.88 5.21997C33.9768 5.21997 34.1704 5.21997 34.2672 5.21997C34.6544 5.60664 35.332 6.08997 35.1384 6.47664C34.2672 8.3133 31.8472 8.98997 30.7824 10.5366C30.008 11.5033 30.3952 17.0133 30.3952 18.85Z" fill="white" stroke="white" stroke-width="0.25"/>
<path d="M15.488 6.38C16.1656 6.47667 16.7464 6.57334 17.424 6.67001C17.424 7.92667 16.6496 12.0833 17.2304 12.9533C19.0696 14.79 20.812 16.6267 22.6512 18.56C22.5544 19.2367 22.0704 19.72 21.3928 19.8167C20.1344 18.3667 15.3912 15.2733 15.1976 13.2433C15.2944 10.9233 15.3912 8.60334 15.488 6.38Z" fill="white" stroke="white" stroke-width="0.25"/>
<path d="M37.1712 6.38C37.3648 6.38 37.5584 6.47667 37.8488 6.47667C37.8488 8.7 38.72 10.9233 38.1392 13.1467C37.6552 14.8867 33.396 18.7533 31.944 19.9133C31.8472 19.9133 31.6536 19.8167 31.5568 19.8167C31.1696 19.2367 30.6856 19.2367 30.5888 18.3667C32.428 16.53 34.2672 14.79 36.2032 12.9533C36.3 10.73 35.5256 8.50667 35.9128 6.47667C36.3968 6.38 36.784 6.38 37.1712 6.38Z" fill="white" stroke="white" stroke-width="0.25"/>
<path d="M9.19601 7.92671C4.06561 11.1167 9.58321 17.2067 12.9712 15.37C17.0368 13.2434 13.7456 7.73338 9.19601 7.92671ZM11.8096 13.5334C10.0672 13.4367 8.80881 12.5667 8.90561 10.5367C9.19601 10.3434 9.38961 10.15 9.68001 9.86005C11.7128 9.76338 12.7776 10.8267 12.6808 12.8567C12.2936 13.05 12.0032 13.34 11.8096 13.5334Z" fill="white" stroke="white" stroke-width="0.25"/>
<path d="M41.9144 8.11998C39.3976 9.47332 36.2032 14.4033 41.0432 15.5633C45.98 16.7233 49.0776 7.82998 41.9144 8.11998ZM40.9464 13.34C40.8496 13.05 40.656 12.8567 40.5592 12.5667C40.5592 10.9233 41.624 10.5367 42.6888 9.95665C43.076 10.0533 43.4632 10.0533 43.8504 10.15C43.9472 10.3433 44.044 10.5367 44.1408 10.73C44.9152 12.5667 42.3984 13.92 40.9464 13.34Z" fill="white" stroke="white" stroke-width="0.25"/>
<path d="M42.3984 15.8534C44.2376 16.0467 45.98 16.2401 47.8192 16.4334C47.7224 17.1101 47.6256 17.6901 47.5288 18.3667C47.3352 18.3667 47.1416 18.3667 46.8512 18.3667C41.624 16.7234 40.3656 18.4634 37.9456 21.3634C37.3648 22.0401 36.3968 22.6201 36.1064 23.3934C38.5264 23.3934 40.8496 23.3934 43.2696 23.3934C45.1088 22.8134 46.0768 19.8167 47.6256 18.7534C47.7224 18.7534 47.916 18.7534 48.0128 18.7534C48.4 19.1401 48.6904 19.4301 49.0776 19.8167C47.916 22.0401 45.98 23.4901 44.3344 25.2301C41.3336 25.2301 38.3328 25.2301 35.332 25.2301C35.816 23.5867 34.5576 23.3934 34.364 22.0401C36.2032 20.3001 37.8488 18.0767 39.8816 16.5301C40.4624 15.9501 41.5272 16.2401 42.3984 15.8534Z" fill="white" stroke="white" stroke-width="0.25"/>
<path d="M10.7448 16.0466C11.5192 16.0466 12.1968 16.1433 12.9712 16.1433C15.004 18.1733 17.0368 20.1066 19.0696 22.1366C18.5856 23.2 18.0048 23.8766 18.1984 25.4233C18.0048 25.4233 17.8112 25.4233 17.5208 25.4233C15.004 24.8433 12.2936 25.9066 9.77679 25.3266C8.13119 24.94 5.13039 21.3633 4.35599 19.9133C4.74319 19.5266 5.13039 19.2366 5.61439 18.85C7.64719 19.5266 8.22799 22.8133 10.164 23.49C11.4224 23.49 12.6808 23.49 13.8424 23.49C15.004 23.49 15.1008 23.49 16.2624 23.3933C16.1656 23.3933 17.2304 23.2966 17.1336 23.2966C15.3912 21.5566 13.6488 19.72 11.9064 17.98C10.0672 17.2066 7.25999 18.27 5.61439 18.3666C5.51759 17.69 5.32399 17.0133 5.42079 16.3366C7.25999 16.24 9.00239 16.1433 10.7448 16.0466Z" fill="white" stroke="white" stroke-width="0.25"/>
<path d="M48.0128 23.49C46.5608 24.07 45.3992 24.1667 44.7216 25.52C43.076 29.29 48.0128 31.4167 50.9168 29.87C54.5952 28.0333 52.4656 23.2967 48.0128 23.49ZM50.6264 27.3567C49.9488 28.9033 47.2384 28.42 46.5608 27.26C46.5608 26.97 46.6576 26.68 46.6576 26.39C46.948 25.7133 47.432 25.6167 48.0128 25.23C49.5616 25.1333 50.2392 25.4233 50.7232 26.4867C50.6264 26.7767 50.6264 27.0667 50.6264 27.3567Z" fill="white" stroke="white" stroke-width="0.25"/>
<path d="M4.4528 23.49C2.8072 24.07 1.452 24.2633 0.7744 25.81C-0.484 29.0966 3.2912 31.5133 6.292 30.2566C10.2608 28.5166 9.68 23.2966 4.4528 23.49ZM6.8728 27.3566C6.3888 28.42 4.1624 28.6133 3.2912 28.0333C3.0976 27.7433 2.904 27.55 2.6136 27.26C2.7104 26.97 2.7104 26.68 2.8072 26.39C3.0976 25.81 3.5816 25.7133 4.0656 25.3266C5.7112 25.3266 7.26 25.81 6.8728 27.3566Z" fill="white" stroke="white" stroke-width="0.25"/>
<path d="M18.1984 30.3533C16.1656 30.3533 11.0352 29.7733 9.58319 30.74C8.13119 31.7067 7.16319 33.8333 6.00159 35.09C5.13039 35.09 4.74319 34.6067 4.45279 34.0267C4.93679 32.8667 8.13119 29.1933 9.19599 28.71C10.648 28.13 16.456 28.13 18.1016 28.6133C18.1984 29.1933 18.1984 29.7733 18.1984 30.3533Z" fill="white" stroke="white" stroke-width="0.25"/>
<path d="M35.332 28.6133C38.236 28.6133 41.2368 28.6133 44.1408 28.6133C45.496 29.0966 48.2064 32.7699 48.9808 34.1233C48.6904 34.5099 48.2064 34.7033 47.916 35.1866C46.7544 34.8966 44.044 31.4166 43.1728 30.4499C40.4624 30.4499 37.8488 30.4499 35.1384 30.4499C35.2352 29.7733 35.332 29.1933 35.332 28.6133Z" fill="white" stroke="white" stroke-width="0.25"/>
<path d="M18.0048 30.6433C18.392 30.6433 18.392 30.6433 18.5856 30.8366C18.876 31.1266 19.1664 31.4166 19.5536 31.7066C19.5536 31.8033 19.5536 31.8033 19.5536 31.9C16.5528 34.22 16.0688 37.99 10.648 37.99C9.3896 37.99 6.5824 38.0866 6.1952 37.5066C6.0984 37.2166 6.1952 36.1533 6.3888 35.8633C8.9056 35.8633 12.0032 37.0233 13.6488 35.5733C14.3264 34.7033 14.9072 33.93 15.5848 33.06C16.2624 32.19 17.424 31.61 18.0048 30.6433Z" fill="white" stroke="white" stroke-width="0.25"/>
<path d="M35.7192 31.1267C35.816 31.1267 35.9128 31.1267 36.0096 31.1267C37.5584 32.2867 39.5912 35.7667 41.3336 36.4434C43.56 36.4434 45.8832 36.54 48.1096 36.54C48.1096 37.12 48.1096 37.7 48.1096 38.1834C45.5928 38.28 43.076 38.28 40.5592 38.3767C39.3008 37.99 37.9456 35.8634 36.9776 34.8967C36.2032 34.0267 34.6544 33.1567 34.7512 31.7067C35.0416 31.5134 35.4288 31.32 35.7192 31.1267Z" fill="white" stroke="white" stroke-width="0.25"/>
<path d="M21.78 34.22C21.8768 34.22 21.9736 34.22 22.0704 34.22C22.4576 34.6066 22.748 34.8966 23.1352 35.2833C23.1352 35.38 23.1352 35.38 23.1352 35.4766C21.8768 36.3466 17.908 40.02 17.5208 41.47C16.94 43.5 18.392 45.9166 17.6176 47.6566C17.0368 47.6566 16.456 47.6566 15.972 47.6566C14.6168 38.1833 17.5208 38.86 21.78 34.22Z" fill="white" stroke="white" stroke-width="0.25"/>
<path d="M38.1392 48.14C37.5584 48.0434 36.8808 48.0434 36.3 47.9467C36.3 46.5934 37.0744 42.4367 36.4936 41.47C35.4288 39.6334 31.7504 37.7967 31.0728 35.8634C31.46 35.1867 31.7504 34.9934 32.3312 34.6067C32.8152 35.09 33.396 35.67 33.88 36.1534C35.4288 36.9267 37.268 39.15 38.236 40.5034C38.3328 43.3067 38.236 45.7234 38.1392 48.14Z" fill="white" stroke="white" stroke-width="0.25"/>
<path d="M23.3288 35.96C23.9096 35.96 24.5872 36.0566 25.168 36.0566C25.168 43.0166 26.2328 52.2966 23.4256 56.9366C22.6512 56.9366 21.9736 56.9366 21.1992 56.9366C21.296 56.84 21.3928 56.7433 21.4896 56.6466C22.0704 55.0033 22.748 53.36 23.1352 51.33C24.0064 46.5933 22.9416 40.6 23.3288 35.96Z" fill="white" stroke="white" stroke-width="0.25"/>
<path d="M28.556 35.96C29.1368 35.96 29.8144 35.96 30.3952 35.96C30.2984 43.6933 29.4272 52.1033 32.5248 57.0333C31.7504 57.0333 31.0728 57.0333 30.2984 57.0333C29.9112 55.0033 28.6528 53.7466 28.2656 51.4266C27.3944 46.5933 28.556 40.9866 28.556 35.96Z" fill="white" stroke="white" stroke-width="0.25"/>
<path d="M11.0352 38.7634C10.164 39.15 9.19602 39.3434 8.51842 40.02C6.38882 42.1467 7.74402 45.82 10.3576 46.2067C15.004 46.69 17.6176 38.4734 11.0352 38.7634ZM9.97042 43.8867C9.77682 43.79 9.68002 43.6934 9.48642 43.5967C9.38962 41.6634 10.0672 41.18 11.4224 40.5034C12.1968 40.5034 12.3904 40.6967 12.8744 40.89C13.068 42.8234 11.9064 44.8534 9.97042 43.8867Z" fill="white" stroke="white" stroke-width="0.25"/>
<path d="M41.2368 39.0533C36.3 41.76 41.624 48.8167 45.2056 46.0133C48.5936 43.3067 45.496 38.9567 41.2368 39.0533ZM44.2376 44.37C42.3016 44.95 40.9464 43.5 41.0432 41.3733C41.3336 41.18 41.5272 41.0833 41.8176 40.89C43.9472 40.89 44.9152 42.5333 44.2376 44.37Z" fill="white" stroke="white" stroke-width="0.25"/>
<path d="M64.0816 32.77H57.0152V32.3833C57.596 32.2867 57.9832 32.0933 58.1768 31.8033C58.3704 31.61 58.4672 31.2233 58.4672 30.6433V22.8133C58.4672 22.2333 58.3704 21.8467 58.1768 21.6533C57.9832 21.46 57.596 21.2667 57.0152 21.17V20.7833H63.2104C64.4688 20.7833 65.4368 20.9767 66.2112 21.46C66.9856 21.9433 67.276 22.62 67.276 23.49C67.276 24.8433 66.4048 25.81 64.6624 26.2933C66.8888 26.68 68.0504 27.7433 68.0504 29.3867C68.0504 30.3533 67.6632 31.03 66.9856 31.61C66.1144 32.48 65.2432 32.77 64.0816 32.77ZM60.984 21.6533V26.39H61.952C62.7264 26.39 63.3072 26.1967 63.6944 25.7133C64.0816 25.3267 64.372 24.7467 64.372 23.9733C64.372 22.4267 63.5008 21.6533 61.7584 21.6533H60.984ZM62.436 27.0667H60.984V30.6433C60.984 31.1267 61.0808 31.5133 61.3712 31.8033C61.6616 31.9967 62.0488 32.0933 62.7264 32.0933C63.5008 32.0933 64.0816 31.9 64.4688 31.4167C64.856 30.9333 65.1464 30.3533 65.1464 29.58C65.1464 28.8067 64.9528 28.2267 64.4688 27.7433C63.9848 27.26 63.2104 27.0667 62.436 27.0667Z" fill="white"/>
<path d="M77.3432 30.45H77.7304C77.3432 31.2234 76.8592 31.9001 76.0848 32.3834C75.3104 32.8667 74.536 33.0601 73.6648 33.0601C72.5032 33.0601 71.5352 32.6734 70.664 31.9001C69.7928 31.1267 69.5024 30.16 69.5024 29.0001C69.5024 27.84 69.8896 26.8734 70.7608 26.0034C71.5352 25.23 72.6 24.8434 73.7616 24.8434C74.8264 24.8434 75.6976 25.1334 76.472 25.8101C77.1496 26.3901 77.6336 27.26 77.7304 28.3234H72.0192C72.0192 28.42 72.0192 28.5167 72.0192 28.6134C72.0192 29.6767 72.3096 30.4501 72.7936 31.1267C73.2776 31.8034 73.9552 32.0934 74.7296 32.0934C75.6976 32.0934 76.5688 31.5134 77.3432 30.45ZM71.9224 27.84H75.2136C75.2136 27.1634 75.02 26.5834 74.6328 26.1C74.3424 25.6167 73.9552 25.4234 73.4712 25.4234C72.9872 25.4234 72.6 25.6167 72.3096 26.1C72.116 26.4867 71.9224 27.0667 71.9224 27.84Z" fill="white"/>
<path d="M82.1832 24.8434V27.2601C82.8608 25.6167 83.732 24.8434 84.7 24.8434C85.184 24.8434 85.668 25.0367 86.0552 25.52L85.5712 27.84C84.8936 27.1634 84.3128 26.8734 83.8288 26.8734C83.5384 26.8734 83.248 26.97 82.9576 27.0667C82.6672 27.26 82.4736 27.55 82.1832 27.9367V31.03C82.1832 31.5134 82.28 31.8034 82.4736 31.9967C82.6672 32.19 82.9576 32.2867 83.5384 32.3834V32.7701H78.6984V32.3834C79.1824 32.2867 79.5696 32.0934 79.6664 31.9C79.86 31.7067 79.9568 31.4167 79.9568 30.9334V26.97C79.9568 26.4867 79.86 26.1 79.6664 25.9067C79.4728 25.7134 79.0856 25.52 78.6016 25.52V25.1334L81.8928 24.8434H82.1832Z" fill="white"/>
<path d="M87.0232 27.9367C87.0232 27.0667 87.4104 26.2934 88.088 25.7134C88.7656 25.1334 89.7336 24.8434 90.8952 24.8434C91.0888 24.8434 91.3792 24.8434 91.7664 24.8434H92.0568H96.0256V26.1967L94.0896 26.0034C94.7672 26.5834 95.1544 27.26 95.1544 27.9367C95.1544 28.71 94.7672 29.3867 94.0896 29.9667C93.412 30.4501 92.5408 30.74 91.476 30.74C90.6048 30.74 89.9272 30.8367 89.6368 30.9334C89.2496 31.0301 89.056 31.2234 89.056 31.5134C89.056 31.7067 89.1528 31.9 89.4432 31.9967C89.7336 32.0934 90.3144 32.1901 91.2824 32.2867C92.6376 32.3834 93.6056 32.5767 94.2832 32.8667C94.864 33.1567 95.348 33.4467 95.6384 33.8334C95.9288 34.2201 96.1224 34.7034 96.1224 35.1867C96.1224 36.1534 95.6384 37.0234 94.7672 37.7001C93.7992 38.3767 92.6376 38.6667 91.0888 38.6667C89.8304 38.6667 88.7656 38.4734 87.8944 37.9901C87.12 37.5067 86.636 37.0234 86.636 36.2501C86.636 35.6701 86.9264 35.1867 87.5072 34.8001C88.088 34.4134 88.8624 34.1234 89.8304 34.0267V33.93C88.9592 33.8334 88.2816 33.6401 87.7976 33.3501C87.3136 33.0601 87.12 32.9634 87.12 32.3834C87.12 31.9967 87.3136 31.6101 87.7008 31.4167C88.088 31.1267 88.6688 30.9334 89.6368 30.74C88.7656 30.45 88.088 30.1601 87.7008 29.6767C87.2168 29.1934 87.0232 28.6134 87.0232 27.9367ZM88.3784 35.6701C88.3784 36.2501 88.8624 36.7334 89.7336 37.0234C90.6048 37.4101 91.6696 37.5067 92.8312 37.5067C93.412 37.5067 93.896 37.4101 94.1864 37.1201C94.5736 36.9267 94.7672 36.5401 94.7672 36.2501C94.7672 35.6701 94.38 35.1867 93.5088 34.8967C92.6376 34.6067 91.6696 34.4134 90.508 34.4134C89.8304 34.4134 89.3464 34.5101 88.9592 34.7034C88.572 34.9934 88.3784 35.2834 88.3784 35.6701ZM89.3464 27.9367C89.3464 28.71 89.54 29.2901 89.8304 29.6767C90.1208 30.1601 90.6048 30.3534 91.0888 30.3534C91.6696 30.3534 92.0568 30.1601 92.3472 29.6767C92.6376 29.2901 92.8312 28.6134 92.8312 27.84C92.8312 27.0667 92.6376 26.4867 92.3472 26.1C92.0568 25.7134 91.6696 25.4234 91.1856 25.4234C89.9272 25.4234 89.3464 26.2934 89.3464 27.9367Z" fill="white"/>
<path d="M105.222 30.45H105.609C105.222 31.2234 104.738 31.9001 103.963 32.3834C103.189 32.8667 102.414 33.0601 101.543 33.0601C100.382 33.0601 99.4136 32.6734 98.5424 31.9001C97.6712 31.1267 97.3808 30.16 97.3808 29.0001C97.3808 27.84 97.768 26.8734 98.6392 26.0034C99.4136 25.23 100.478 24.8434 101.64 24.8434C102.705 24.8434 103.576 25.1334 104.35 25.8101C105.028 26.3901 105.512 27.26 105.609 28.3234H99.8976C99.8976 28.42 99.8976 28.5167 99.8976 28.6134C99.8976 29.6767 100.188 30.4501 100.672 31.1267C101.156 31.8034 101.834 32.0934 102.608 32.0934C103.576 32.0934 104.447 31.5134 105.222 30.45ZM99.8008 27.84H103.092C103.092 27.1634 102.898 26.5834 102.511 26.1C102.221 25.6167 101.834 25.4234 101.35 25.4234C100.866 25.4234 100.478 25.6167 100.188 26.1C99.9944 26.4867 99.8008 27.0667 99.8008 27.84Z" fill="white"/>
<path d="M110.062 24.8434V26.68C110.836 25.4234 111.707 24.8434 112.966 24.8434C113.74 24.8434 114.321 25.1334 114.902 25.6167C115.386 26.1 115.676 26.7767 115.676 27.6467V30.9334C115.676 31.4167 115.773 31.7067 115.966 31.9C116.16 32.0934 116.45 32.2867 116.934 32.3834V32.7701H112.288V32.3834C112.772 32.2867 113.062 32.0934 113.256 31.9C113.45 31.7067 113.546 31.4167 113.546 30.9334V27.7434C113.546 27.1634 113.45 26.7767 113.159 26.39C112.869 26.1 112.578 25.9067 112.094 25.9067C111.32 25.9067 110.642 26.3901 110.158 27.2601V30.9334C110.158 31.4167 110.255 31.7067 110.352 31.9C110.449 32.0934 110.836 32.2867 111.223 32.3834V32.7701H106.674V32.3834C107.158 32.2867 107.448 32.0934 107.642 31.9C107.835 31.7067 107.932 31.4167 107.932 31.03V26.7767C107.932 26.3901 107.835 26.0034 107.642 25.8101C107.448 25.6167 107.061 25.52 106.577 25.4234V25.1334L109.868 24.8434H110.062Z" fill="white"/>
<path d="M130.486 24.94H130.874V28.6134H130.486C130.39 28.13 130.196 27.7433 129.906 27.4533C129.615 27.1633 129.228 27.0667 128.647 27.0667H126.808V30.74C126.808 31.2233 126.905 31.61 127.098 31.9C127.292 32.19 127.679 32.2867 128.26 32.3833V32.77H122.742V32.3833C123.323 32.2867 123.71 32.0933 123.904 31.9C124.098 31.61 124.194 31.2233 124.194 30.5467V23.0067C124.194 22.5233 124.098 22.1367 123.904 21.9434C123.71 21.75 123.323 21.5567 122.742 21.3634V20.9767H131.067L131.261 23.2H130.874C130.68 22.62 130.39 22.2333 130.099 22.04C129.809 21.8467 129.325 21.6534 128.744 21.6534H126.808V26.4867H128.647C129.131 26.4867 129.615 26.39 129.809 26.1967C130.002 26.0034 130.293 25.52 130.486 24.94Z" fill="white"/>
<path d="M134.165 33.0601C133.487 33.0601 133.003 32.8667 132.519 32.48C132.035 32.0934 131.842 31.61 131.842 31.03C131.842 30.45 132.035 30.0634 132.519 29.6767C133.003 29.2901 133.874 28.9034 135.23 28.6134C135.907 28.4201 136.391 28.3234 136.682 28.2267C136.682 27.5501 136.488 26.9701 136.198 26.6801C135.907 26.3901 135.423 26.1967 134.746 26.1967C133.681 26.1967 133.003 26.5834 132.422 27.4534H132.132C132.326 26.68 132.713 26.0034 133.294 25.52C133.874 25.0367 134.649 24.8434 135.52 24.8434C136.488 24.8434 137.359 25.1334 137.94 25.6167C138.521 26.1 138.811 26.7767 138.811 27.7434V31.3201C138.811 31.9967 139.005 32.2867 139.295 32.2867C139.586 32.2867 139.779 32.0934 139.876 31.6101H140.166C140.166 32.0934 139.973 32.48 139.586 32.6734C139.295 32.9634 138.811 33.0601 138.23 33.0601C137.746 33.0601 137.359 32.9634 137.069 32.7701C136.778 32.5767 136.585 32.2867 136.391 31.9967L136.198 32.19C135.907 32.77 135.133 33.0601 134.165 33.0601ZM136.778 31.4167V28.5167C135.81 28.9034 135.133 29.2901 134.746 29.5801C134.455 29.8701 134.262 30.2567 134.262 30.74C134.262 31.1267 134.358 31.5134 134.552 31.7067C134.746 31.9967 135.036 32.0934 135.326 32.0934C135.714 32.1901 136.198 31.9967 136.778 31.4167Z" fill="white"/>
<path d="M144.813 24.8434V26.68C145.394 25.4234 146.265 24.8434 147.523 24.8434C148.782 24.8434 149.653 25.4234 150.04 26.68C150.427 26.0034 150.814 25.52 151.298 25.23C151.686 24.94 152.266 24.7467 152.847 24.7467C153.622 24.7467 154.202 25.0367 154.686 25.52C155.074 26.0034 155.364 26.68 155.364 27.55V30.9334C155.364 31.4167 155.461 31.7067 155.654 31.9C155.848 32.0934 156.138 32.2867 156.622 32.3834V32.77H151.976V32.3834C152.363 32.2867 152.75 32.0934 152.944 31.9C153.138 31.7067 153.234 31.4167 153.234 31.03V27.3567C153.234 26.97 153.138 26.5834 152.847 26.39C152.654 26.1 152.363 26.0034 151.976 26.0034C151.202 26.0034 150.621 26.5834 150.234 27.6467V30.9334C150.234 31.32 150.33 31.61 150.524 31.8034C150.718 31.9967 151.008 32.19 151.492 32.2867V32.6734H146.846V32.2867C147.233 32.19 147.62 31.9967 147.814 31.8034C148.007 31.61 148.104 31.32 148.104 31.03V27.26C148.104 26.8734 148.007 26.5834 147.717 26.39C147.523 26.1967 147.233 26.0034 146.846 26.0034C146.168 26.0034 145.587 26.4867 145.103 27.3567V30.9334C145.103 31.4167 145.2 31.8034 145.394 31.9967C145.587 32.19 145.878 32.3834 146.362 32.48V32.8667H141.328V32.48C141.812 32.3834 142.102 32.19 142.296 31.9967C142.49 31.8034 142.586 31.5134 142.586 31.1267V27.0667C142.586 26.5834 142.49 26.1967 142.296 26.0034C142.102 25.81 141.715 25.6167 141.231 25.52V25.1334L144.522 24.8434H144.813Z" fill="white"/>
<path d="M160.785 24.8434H161.172V31.1267C161.172 31.9 161.559 32.2867 162.43 32.3834V32.77H157.687V32.3834C158.171 32.2867 158.558 32.0934 158.752 31.9967C158.946 31.9 159.042 31.5134 159.042 31.03V26.97C159.042 26.4867 158.946 26.1967 158.752 26.0034C158.558 25.81 158.171 25.7134 157.687 25.6167V25.1334L160.785 24.8434ZM158.655 21.46C158.655 21.0734 158.752 20.7834 159.042 20.4934C159.333 20.2034 159.623 20.1067 160.01 20.1067C160.398 20.1067 160.688 20.2034 160.978 20.4934C161.269 20.7834 161.366 21.0734 161.366 21.46C161.366 21.8467 161.269 22.1367 160.978 22.4267C160.688 22.7167 160.398 22.8134 160.01 22.8134C159.623 22.8134 159.333 22.7167 159.042 22.4267C158.752 22.1367 158.655 21.8467 158.655 21.46Z" fill="white"/>
<path d="M163.205 32.77V32.3833C163.786 32.2867 164.076 32.19 164.366 31.9C164.56 31.7067 164.657 31.32 164.657 30.8367V22.1367C164.657 21.5567 164.56 21.17 164.366 20.9767C164.173 20.7833 163.786 20.59 163.205 20.59V20.2033L166.593 20.01H166.98V30.9333C166.98 31.4167 167.077 31.8033 167.27 31.9967C167.464 32.19 167.754 32.3833 168.335 32.48V32.8667H163.205V32.77Z" fill="white"/>
<path d="M178.112 25.1333V25.52C177.628 25.6166 177.338 25.81 177.047 26.0033C176.854 26.1966 176.563 26.68 176.273 27.4533L172.401 36.1533C172.014 37.12 171.53 37.7 171.046 38.0866C170.562 38.4733 169.884 38.6666 169.11 38.6666C168.819 38.6666 168.626 38.6666 168.432 38.6666L168.916 36.3466C169.303 36.4433 169.594 36.54 169.981 36.54C170.658 36.54 171.239 36.25 171.723 35.7666C172.207 35.2833 172.691 34.3166 173.175 33.06L170.368 27.1633C170.078 26.5833 169.787 26.1966 169.594 25.9066C169.4 25.6166 169.013 25.52 168.529 25.4233V25.1333H173.175V25.52C172.691 25.6166 172.498 25.81 172.498 26.1C172.498 26.2933 172.594 26.5833 172.788 27.0666L174.434 30.3533L175.498 27.9366C175.789 27.3566 175.886 26.8733 175.886 26.4866C175.886 26.0033 175.595 25.6166 175.014 25.52V25.1333H178.112Z" fill="white"/>
<path d="M194.568 25.0366H194.278C193.987 23.8766 193.503 22.91 192.826 22.2333C192.148 21.5566 191.277 21.2666 190.309 21.2666C189.244 21.2666 188.373 21.75 187.695 22.62C187.018 23.5866 186.727 24.7466 186.727 26.39C186.727 28.13 187.114 29.4833 187.889 30.45C188.663 31.4166 189.728 31.9 190.986 31.9C191.664 31.9 192.342 31.7066 192.922 31.4166C193.503 31.1266 194.084 30.6433 194.762 29.9666V30.5466C193.6 32.19 192.051 32.9633 190.018 32.9633C188.179 32.9633 186.727 32.3833 185.662 31.32C184.501 30.16 184.017 28.71 184.017 26.97C184.017 25.1333 184.598 23.6833 185.856 22.4266C187.114 21.17 188.566 20.59 190.406 20.59C191.18 20.59 191.954 20.7833 192.922 21.0733C193.31 21.17 193.6 21.2666 193.697 21.2666C193.987 21.2666 194.181 21.0733 194.471 20.6866H194.762V25.0366H194.568Z" fill="white"/>
<path d="M203.958 30.45H204.345C203.958 31.2234 203.474 31.9001 202.699 32.3834C201.925 32.8667 201.15 33.0601 200.279 33.0601C199.118 33.0601 198.15 32.6734 197.278 31.9001C196.407 31.1267 196.117 30.16 196.117 29.0001C196.117 27.84 196.504 26.8734 197.375 26.0034C198.246 25.1334 199.214 24.8434 200.376 24.8434C201.441 24.8434 202.312 25.1334 203.086 25.8101C203.861 26.4867 204.248 27.26 204.345 28.3234H198.634C198.634 28.42 198.634 28.5167 198.634 28.6134C198.634 29.6767 198.924 30.4501 199.408 31.1267C199.892 31.8034 200.57 32.0934 201.344 32.0934C202.312 32.0934 203.183 31.5134 203.958 30.45ZM198.537 27.84H201.828C201.828 27.1634 201.634 26.5834 201.247 26.1C200.957 25.6167 200.57 25.4234 200.086 25.4234C199.602 25.4234 199.214 25.6167 198.924 26.1C198.73 26.4867 198.537 27.0667 198.537 27.84Z" fill="white"/>
<path d="M208.798 24.8434V26.68C209.572 25.4234 210.443 24.8434 211.702 24.8434C212.476 24.8434 213.057 25.1334 213.638 25.6167C214.122 26.1 214.412 26.7767 214.412 27.6467V30.9334C214.412 31.4167 214.509 31.7067 214.702 31.9C214.896 32.0934 215.186 32.2867 215.67 32.3834V32.7701H211.024V32.3834C211.508 32.2867 211.798 32.0934 211.992 31.9C212.186 31.7067 212.282 31.4167 212.282 30.9334V27.7434C212.282 27.1634 212.186 26.7767 211.895 26.39C211.605 26.1 211.314 25.9067 210.83 25.9067C210.056 25.9067 209.378 26.3901 208.894 27.2601V30.9334C208.894 31.4167 208.991 31.7067 209.088 31.9C209.282 32.0934 209.572 32.2867 209.959 32.3834V32.7701H205.41V32.3834C205.894 32.2867 206.184 32.0934 206.378 31.9C206.571 31.7067 206.668 31.4167 206.668 31.03V26.7767C206.668 26.3901 206.571 26.0034 206.378 25.8101C206.184 25.6167 205.797 25.52 205.313 25.4234V25.1334L208.604 24.8434H208.798Z" fill="white"/>
<path d="M222.64 31.5134L222.834 31.7067C222.35 32.5767 221.478 33.0601 220.414 33.0601C219.639 33.0601 218.962 32.8667 218.478 32.3834C217.994 31.9967 217.8 31.3201 217.8 30.6434V25.8101H216.445V25.4234C217.413 24.8434 218.574 23.7801 219.736 22.2334H220.123V25.1334H222.64V25.7134H220.123V30.0634C220.123 30.7401 220.22 31.2234 220.414 31.5134C220.607 31.8034 220.994 31.9967 221.478 31.9967C221.962 32.0934 222.35 31.9001 222.64 31.5134Z" fill="white"/>
<path d="M231.642 30.45H232.03C231.642 31.2234 231.158 31.9001 230.384 32.3834C229.61 32.8667 228.835 33.0601 227.964 33.0601C226.802 33.0601 225.834 32.6734 224.963 31.9001C224.092 31.1267 223.802 30.16 223.802 29.0001C223.802 27.84 224.189 26.8734 225.06 26.0034C225.931 25.1334 226.899 24.8434 228.061 24.8434C229.126 24.8434 229.997 25.1334 230.771 25.8101C231.546 26.4867 231.933 27.26 232.03 28.3234H226.318C226.318 28.42 226.318 28.5167 226.318 28.6134C226.318 29.6767 226.609 30.4501 227.093 31.1267C227.577 31.8034 228.254 32.0934 229.029 32.0934C229.997 32.0934 230.965 31.5134 231.642 30.45ZM226.222 27.84H229.513C229.513 27.1634 229.319 26.5834 228.932 26.1C228.642 25.6167 228.254 25.4234 227.77 25.4234C227.286 25.4234 226.899 25.6167 226.609 26.1C226.415 26.4867 226.318 27.0667 226.222 27.84Z" fill="white"/>
<path d="M236.482 24.8434V27.2601C237.16 25.6167 238.031 24.8434 238.999 24.8434C239.483 24.8434 239.967 25.0367 240.354 25.52L239.87 27.84C239.193 27.1634 238.612 26.8734 238.128 26.8734C237.838 26.8734 237.547 26.97 237.257 27.0667C236.966 27.1634 236.773 27.55 236.482 27.9367V31.03C236.482 31.5134 236.579 31.8034 236.773 31.9967C236.966 32.19 237.257 32.2867 237.838 32.3834V32.7701H232.998V32.3834C233.482 32.2867 233.869 32.0934 233.966 31.9C234.159 31.7067 234.256 31.4167 234.256 30.9334V26.97C234.256 26.4867 234.159 26.1 233.966 25.9067C233.772 25.7134 233.385 25.52 232.901 25.52V25.1334L236.192 24.8434H236.482Z" fill="white"/>
</svg>
