<svg viewBox="0 0 1350 1350" xmlns="http://www.w3.org/2000/svg" xmlns:xlink="http://www.w3.org/1999/xlink">
  <defs>
    <radialGradient cx="98.16%" cy="2.91%" fx="98.16%" fy="2.91%" r="93.41%" gradientTransform="scale(-1 -.75586) rotate(-77.28 -.04 1.22)" id="f">
      <stop stop-opacity=".1" offset="0%"/>
      <stop stop-opacity="0" offset="100%"/>
    </radialGradient>
    <radialGradient cx="100%" cy="2.52%" fx="100%" fy="2.52%" r="43.53%" gradientTransform="scale(1 .75586) rotate(63.37 1 .03)" id="g">
      <stop stop-opacity=".45" offset="0%"/>
      <stop stop-opacity=".21" offset="27.88%"/>
      <stop stop-opacity="0" offset="100%"/>
    </radialGradient>
    <radialGradient cx="58.49%" cy="96.45%" fx="58.49%" fy="96.45%" r="55.14%" gradientTransform="scale(1 .68056) rotate(-46.78 1.1 1.2)" id="j">
      <stop stop-opacity=".45" offset="0%"/>
      <stop stop-opacity=".21" offset="27.88%"/>
      <stop stop-opacity="0" offset="100%"/>
    </radialGradient>
    <radialGradient cx="-57.97%" cy="50%" fx="-57.97%" fy="50%" r="118.15%" gradientTransform="matrix(1 0 0 .68056 0 .16)" id="k">
      <stop stop-opacity=".45" offset="0%"/>
      <stop stop-opacity=".45" offset="65.34%"/>
      <stop stop-opacity=".09" offset="87.38%"/>
      <stop stop-opacity="0" offset="100%"/>
    </radialGradient>
    <radialGradient cx="-32.75%" cy="-45.64%" fx="-32.75%" fy="-45.64%" r="178.51%" gradientTransform="matrix(.4193 0 0 1 -.19 0)" id="o">
      <stop stop-opacity=".45" offset="0%"/>
      <stop stop-opacity=".45" offset="65.34%"/>
      <stop stop-opacity=".09" offset="87.38%"/>
      <stop stop-opacity="0" offset="100%"/>
      <stop stop-opacity="0" offset="100%"/>
    </radialGradient>
    <path d="M328.5 0c86.3 0 165.26 33 223.81 87.74C577.4 66.81 626.3 44 699 44c141 0 232 91 232 229l.01 20.73.03 20.81.06 22.3.27 54.88.1 19.52.04 11.55.03 10.49v6.77l-.02 19.18-.06 15.75-.16 24.33-.18 21.95L931 534v.3a166.1 166.1 0 0 0 24.15-23.28L956 510c61.58-74.15 116.26-61.43 141.17-52.83l1.63.57 1.55.56 4.06 1.49.59.21c19.5 7.02 19.21 15.8 10.32 35.5l-.7 1.54-.73 1.58-.38.81-1.18 2.5-1.25 2.6-4.59 9.45-.49 1.02c-28.54 59.1-91.7 124.68-181 160.65v.35l-.3 22.75-.22 19.25-.24 22.07-.19 20.6-.11 14.14-.12 16.8-.1 18.99-.03 9.08-.04 14.6-.02 15.4v8.64l.01 9.97.02 13.04.03 12.86.24 69.34.05 23.42.02 21.52v5.53c0 119.3-97.7 216-217 216s-216-96.7-216-216v-3.88l-.04-8.94v-5.88l.03-2.34.02-2.32c.5-34.8 5.32-65.65 42.99-65.65 28.71 0 86.82 20.58 87.01 91.83L621 1019c-.45 33 33 80 86 80 67.4 0 98.99-66.3 99-99.15V703c0-.24 0-.48.03-.72-7.89.47-15.9.72-24.03.72-147.23 0-231.6-82.56-256.74-109.56l-1.47-1.58C474.71 630.8 407.12 660 328.5 660 147.07 660 0 512.25 0 330S147.07 0 328.5 0Zm6.5 115c-80 0-211 66-211 214 0 103 79 207 203 207 43.92 0 97.52-11.52 160-74 35-35 91-33 106-22l.36.27.71.53c11.42 8.78 18.2 20.91 9.05 47.34.64.79 1.3 1.6 1.97 2.46l1.39 1.74 3.72 4.73 1.6 2.03C635.7 529.27 680.99 581 782 581a195 195 0 0 0 4.78-.05l1.98-.04 2.03-.06 2.06-.08A286.3 286.3 0 0 0 813 579.2v-6.43l-.01-13.77-.04-27.57-.07-30.14-.09-26.39-.14-38.46-.53-113.3-.09-25.4-.02-10.99L812 277c0-55-51-113-115-113-23.17 0-42.25 8.5-55.2 16.53l-1.23.78c-1.42.9-2.76 1.79-4.02 2.66l-1.05.74-1.02.72-.97.71-.94.7-.89.68-.85.65-.4.32-.8.62-.74.6-.7.57-.65.55-.9.75-1.27 1.1c1 9.81-2.34 20.2-15.37 29.32-10 7-62 36-127-32-26.49-27.7-82-75-148-75Z" id="a"/>
    <path d="M707 1230c119.3 0 217-96.7 217-216s-1.3-167.63 1-338c.64-47.16-119-.8-119 27v296.85c-.01 32.86-31.6 99.15-99 99.15-53 0-86.45-47-86-80 1-73-58-94-87-94-46 0-43 46-43 89 0 119.3 96.7 216 216 216Z" id="e"/>
    <path d="M931 534c1.22-125 0-123 0-261S840 44 699 44c-73 0-122 23-147 44s64.86 112.12 73 105c6.99-6.11 34-29 72-29 64 0 115 58 115 113s1 182 1 304c0 65 117.55-1.44 118-47Z" id="i"/>
    <path d="M335 115c-80 0-211 66-211 214 0 103 79 207 203 207 43.92 0 97.52-11.52 160-74 35-35 91-33 106-22l.36.27.71.53c11.42 8.78 18.2 20.91 9.05 47.34.64.79 1.3 1.6 1.97 2.46l1.39 1.74 3.72 4.73 1.6 2.03C635.7 529.27 680.99 581 782 581c2.18 0 4.45-.03 6.8-.1l2.04-.06c6.52-.22 13.63-.7 21.17-1.53l.11-7.31.06-3.66.1-7.32.09-7.32.08-7.31.08-7.31.07-7.3.05-7.28.06-7.27.06-10.86.04-7.2.04-10.76.01-7.12.03-10.61v-20.91l-.03-13.68-.02-10.09-.06-16.47-.06-12.84-.1-18.62-.26-37.28-.2-27.7-.08-13.4-.05-10.15-.02-7.41v-3.46L812 277c0-55-51-113-115-113-23.17 0-42.25 8.5-55.2 16.53l-1.23.78c-1.42.9-2.76 1.79-4.02 2.66l-1.05.74-1.02.72-.97.71-.94.7-.89.68-.85.65-.4.32-.8.62-.74.6-.7.57-.65.55-.9.75-1.27 1.1c1 9.81-2.34 20.2-15.37 29.32-10 7-62 36-127-32-26.49-27.7-82-75-148-75Z" id="m"/>
    <path d="M782 703c165 0 282-101 324-188 16.47-34.12 24-46-1-55-19.33-6.96-79.8-33.31-149 50-49 59-130.08 71-174 71-115 0-157.77-67.05-179-93-27-33-102 79-80 103s107 112 259 112Z" id="n"/>
    <filter x="0%" y="0%" width="100%" height="100%" filterUnits="objectBoundingBox" id="b">
      <feGaussianBlur in="SourceGraphic"/>
    </filter>
    <filter x="0%" y="0%" width="100%" height="100%" filterUnits="objectBoundingBox" id="c">
      <feGaussianBlur in="SourceGraphic"/>
    </filter>
    <filter x="0%" y="0%" width="100%" height="100%" filterUnits="objectBoundingBox" id="h">
      <feGaussianBlur in="SourceGraphic"/>
    </filter>
    <filter x="-19.6%" y="-20.4%" width="142.1%" height="162.2%" filterUnits="objectBoundingBox" id="l">
      <feOffset dx="10" dy="50" in="SourceAlpha" result="shadowOffsetOuter1"/>
      <feGaussianBlur stdDeviation="40" in="shadowOffsetOuter1" result="shadowBlurOuter1"/>
      <feColorMatrix values="0 0 0 0 0 0 0 0 0 0 0 0 0 0 0 0 0 0 0.2 0" in="shadowBlurOuter1"/>
    </filter>
  </defs>
  <g transform="translate(114 60)" fill="none" fill-rule="evenodd">
    <mask id="d" fill="#fff">
      <use xlink:href="#a"/>
    </mask>
    <use fill="#64DDBB" filter="url(#b)" xlink:href="#a"/>
    <g filter="url(#c)" mask="url(#d)">
      <use fill="#64DDBB" xlink:href="#e"/>
      <use fill="url(#f)" xlink:href="#e"/>
      <use fill="url(#g)" xlink:href="#e"/>
    </g>
    <g filter="url(#h)" mask="url(#d)">
      <use fill="#64DDBB" xlink:href="#i"/>
      <use fill="url(#j)" xlink:href="#i"/>
      <use fill="url(#k)" xlink:href="#i"/>
    </g>
    <g mask="url(#d)">
      <use fill="#000" filter="url(#l)" xlink:href="#m"/>
      <use fill="#64DDBB" xlink:href="#m"/>
    </g>
    <g mask="url(#d)">
      <use fill="#64DDBB" xlink:href="#n"/>
      <use fill="url(#o)" xlink:href="#n"/>
    </g>
    <path d="M328.5 660C457 660 556 582 593 511c22.95-44.03 15-60 0-71s-71-13-106 22c-62.48 62.48-116.08 74-160 74-124 0-203-104-203-207 0-148 131-214 211-214 66 0 121.51 47.3 148 75 65 68 117 39 127 32 31.82-22.28 5.9-52.15-.27-62.64C553 63 447.76 0 328.5 0 147.07 0 0 147.75 0 330s147.07 330 328.5 330Z" fill="#64DDBB" mask="url(#d)"/>
    <circle fill="#64DDBB" cx="687.5" cy="353" r="41.5"/>
  </g>
</svg>
