<svg viewBox="0 0 428 41" fill="none" xmlns="http://www.w3.org/2000/svg">
<g clip-path="url(#clip0_441_906)">
<path d="M189.041 21.8558C189.041 28.6724 186.549 30.7814 182.574 30.7814C179.334 30.7814 178.188 29.2875 178.188 27.8564C178.162 27.618 178.186 27.3766 178.258 27.1481C178.331 26.9196 178.45 26.709 178.609 26.5302C178.768 26.3513 178.962 26.2082 179.179 26.1101C179.397 26.012 179.632 25.9611 179.87 25.9608C180.067 25.9448 180.266 25.971 180.452 26.0375C180.639 26.104 180.81 26.2094 180.953 26.3468C181.097 26.4842 181.21 26.6505 181.285 26.835C181.36 27.0194 181.396 27.2177 181.39 27.417C181.39 27.6304 181.253 28.5469 181.253 28.6724C181.253 29.6265 182.026 29.8273 182.736 29.8273C184.194 29.8273 185.303 29.0113 185.54 26.7015C185.702 25.1072 185.801 23.0986 185.801 21.0273V5.61146C185.867 4.65497 185.788 3.69394 185.565 2.7618C185.365 2.48562 185.266 2.48562 183.82 2.42285C183.446 2.42285 183.147 2.36008 183.147 1.88305C183.147 1.40601 183.446 1.33069 183.845 1.33069C184.244 1.33069 186.512 1.44367 187.085 1.44367C187.658 1.44367 189.951 1.33069 190.499 1.33069C190.761 1.33069 191.334 1.33069 191.334 1.94581C191.334 2.56094 191.197 2.38519 190.462 2.42285C189.041 2.48562 189.041 2.52328 189.041 5.4106V21.8558Z" fill="#62306D"/>
<path d="M199.957 2.51073V11.2982C203.433 11.2982 204.318 11.0221 204.717 8.07196C204.717 7.83344 204.779 7.43173 205.29 7.43173C205.801 7.43173 205.826 7.79578 205.826 8.21005C205.826 8.98837 205.726 10.3818 205.726 12.29C205.726 13.8089 205.826 14.7003 205.826 15.3405C205.826 16.2192 205.589 16.5331 205.19 16.5331C204.792 16.5331 204.654 16.056 204.654 15.8803C204.243 13.1311 204.418 12.3527 199.957 12.29V19.2823C199.957 21.5545 199.957 21.793 200.268 22.0692C200.747 22.2755 201.27 22.3575 201.789 22.3077C208.193 22.3077 209.738 21.4917 210.349 18.4287C210.611 17.0729 210.685 16.9725 211.084 16.9725C211.483 16.9725 211.595 17.3491 211.595 17.5499C211.595 18.027 211.396 22.4082 211.358 22.9856C211.357 23.0496 211.343 23.1126 211.315 23.1704C211.288 23.2283 211.249 23.2796 211.201 23.3212C211.153 23.3627 211.096 23.3934 211.035 23.4113C210.974 23.4292 210.91 23.4339 210.847 23.425C210.175 23.425 206.573 23.3246 202.86 23.3246C199.147 23.3246 195.384 23.425 194.399 23.425C193.888 23.425 193.689 23.2492 193.689 22.8852C193.689 22.3077 193.826 22.3077 194.736 22.3077C196.057 22.3077 196.356 22.3077 196.53 21.7554C196.705 21.203 196.729 18.391 196.729 17.8135V5.37294C196.729 3.43969 196.655 2.69903 196.156 2.62371C195.845 2.62371 194.499 2.48562 194.237 2.42285C193.976 2.36008 194.026 2.22199 194.026 2.04624C194.026 1.46878 194.2 1.33069 194.973 1.33069C195.745 1.33069 198.923 1.44367 201.751 1.44367C204.854 1.44367 207.882 1.33069 209.502 1.33069C209.913 1.33069 209.938 1.50644 209.938 2.0839C209.938 3.17607 210.013 4.66994 210.013 6.12616C210.013 6.4651 210.013 6.80405 209.502 6.80405C208.991 6.80405 208.966 6.56553 208.791 5.64912C208.393 3.37692 206.91 2.42285 201.514 2.42285C200.617 2.42285 200.131 2.51073 199.957 2.51073Z" fill="#62306D"/>
<path d="M218.673 15.9054L217.688 18.6547C217.36 19.4557 217.154 20.3022 217.078 21.1654C217.078 21.7428 217.389 21.9814 218.561 22.1571C219.308 22.2575 219.582 22.1571 219.582 22.6969C219.582 23.2367 219.445 23.2744 219.034 23.2744C218.623 23.2744 216.854 23.174 215.969 23.174C215.084 23.174 213.477 23.2744 213.103 23.2744C212.729 23.2744 212.604 23.1363 212.604 22.8601C212.604 22.2826 212.604 22.3203 213.439 22.2575C214.274 22.1948 215.296 21.9814 216.916 17.7006L223.046 1.54413C223.308 0.790914 223.445 0.414307 223.819 0.414307C224.193 0.414307 224.255 0.590057 224.654 1.88308L229.077 15.692C229.72 17.8001 230.52 19.8564 231.47 21.8433C231.644 22.0441 231.806 22.0818 233.152 22.1822C233.489 22.1822 233.7 22.2826 233.7 22.7597C233.7 23.2367 233.489 23.2995 233.127 23.2995C232.417 23.2995 231.196 23.1991 229.713 23.1991C228.23 23.1991 226.274 23.2995 225.701 23.2995C225.339 23.2995 225.165 23.2995 225.165 22.722C225.165 22.1446 225.165 22.2073 226.174 22.2073C227.42 22.2073 227.632 22.0441 227.632 21.768C227.632 21.4918 227.183 20.2113 226.884 19.1568L225.912 15.8929L218.673 15.9054ZM225.514 14.8886L222.573 5.58638L219.034 14.8886H225.514Z" fill="#62306D"/>
<path d="M238.959 17.2361C238.805 18.6279 238.989 20.0365 239.495 21.3411C239.72 21.6377 240.01 21.8773 240.343 22.0407C240.677 22.2042 241.043 22.287 241.414 22.2826C242.323 22.2826 242.435 22.383 242.435 22.7973C242.435 23.2116 242.435 23.3748 241.551 23.3748C240.878 23.3748 239.669 23.2744 238.211 23.2744C237.239 23.2744 235.719 23.3748 235.183 23.3748C234.647 23.3748 234.51 23.2743 234.51 22.8601C234.51 22.4458 234.71 22.2826 234.946 22.2826C235.404 22.328 235.865 22.2522 236.285 22.0629C236.705 21.8735 237.068 21.5771 237.339 21.203C237.85 20.387 237.85 18.9936 237.85 16.9599V3.37692C237.065 2.48562 236.865 2.46051 235.245 2.46051C234.984 2.46051 234.647 2.38519 234.647 1.94581C234.647 1.50644 234.772 1.33069 235.245 1.33069C235.719 1.33069 237.177 1.44367 237.513 1.44367C237.85 1.44367 239.806 1.33069 240.167 1.33069C240.394 1.33581 240.617 1.3961 240.815 1.50644C240.94 1.64453 241.351 2.32242 241.451 2.46051L252.504 17.5248V5.88764C252.504 4.3561 252.504 2.82456 251.058 2.5986C249.613 2.37264 249.476 2.36008 249.476 1.90815C249.476 1.45622 249.575 1.33069 250.348 1.33069C251.395 1.33069 251.806 1.44367 252.84 1.44367C253.65 1.44367 255.469 1.33069 255.88 1.33069C256.292 1.33069 256.479 1.60687 256.479 1.90815C256.479 2.20944 256.354 2.42285 255.307 2.56094C253.824 2.7618 253.588 3.51501 253.588 6.32701V22.5965C253.588 23.3748 253.588 23.7514 253.077 23.7514C252.778 23.7514 252.703 23.651 251.968 22.5965L238.959 4.69505V17.2361Z" fill="#62306D"/>
<path d="M262.447 17.2361C262.304 18.6073 262.488 19.9931 262.983 21.2783C263.211 21.5752 263.504 21.8147 263.839 21.9781C264.174 22.1415 264.542 22.2243 264.914 22.2199C265.824 22.2199 265.924 22.3203 265.924 22.7345C265.924 23.1488 265.924 23.312 265.039 23.312C264.366 23.312 263.157 23.2116 261.712 23.2116C260.728 23.2116 259.22 23.312 258.672 23.312C258.123 23.312 257.999 23.2116 257.999 22.7973C257.999 22.383 258.198 22.2199 258.435 22.2199C258.892 22.2652 259.354 22.1895 259.773 22.0001C260.193 21.8108 260.556 21.5144 260.827 21.1402C261.338 20.3243 261.338 18.9308 261.338 16.8971V3.37692C260.566 2.48562 260.354 2.46051 258.734 2.46051C258.472 2.46051 258.136 2.38519 258.136 1.94581C258.136 1.50644 258.273 1.33069 258.734 1.33069C259.195 1.33069 260.665 1.44367 261.002 1.44367C261.338 1.44367 263.295 1.33069 263.656 1.33069C263.883 1.33581 264.105 1.3961 264.304 1.50644C264.441 1.64453 264.84 2.32242 264.939 2.46051L276.004 17.5248V5.88764C276.004 4.3561 276.004 2.82456 274.547 2.5986C273.089 2.37264 272.964 2.36008 272.964 1.90815C272.964 1.45622 273.064 1.33069 273.849 1.33069C274.883 1.33069 275.294 1.44367 276.341 1.44367C277.151 1.44367 278.983 1.33069 279.381 1.33069C279.78 1.33069 279.992 1.60687 279.992 1.90815C279.992 2.20944 279.855 2.42285 278.808 2.56094C277.325 2.7618 277.089 3.51501 277.089 6.32701V22.5965C277.089 23.3748 277.089 23.7514 276.578 23.7514C276.279 23.7514 276.216 23.651 275.469 22.5965L262.447 4.69505V17.2361Z" fill="#62306D"/>
<path d="M288.066 2.51073V11.2982C291.53 11.2982 292.415 11.0221 292.814 8.07196C292.814 7.83344 292.889 7.43173 293.387 7.43173C293.886 7.43173 293.923 7.79578 293.923 8.21005C293.923 8.98837 293.823 10.3818 293.823 12.29C293.823 13.8089 293.923 14.7003 293.923 15.3405C293.923 16.2192 293.699 16.5331 293.287 16.5331C292.876 16.5331 292.752 16.056 292.752 15.8803C292.34 13.1311 292.515 12.3527 288.066 12.29V19.2823C288.066 21.5545 288.066 21.793 288.365 22.0692C288.845 22.2745 289.367 22.3565 289.886 22.3077C296.29 22.3077 297.836 21.4917 298.446 18.4287C298.72 17.0729 298.783 16.9725 299.194 16.9725C299.605 16.9725 299.692 17.3491 299.692 17.5499C299.692 18.027 299.493 22.4082 299.455 22.9856C299.456 23.049 299.443 23.1118 299.417 23.1696C299.392 23.2275 299.354 23.2791 299.307 23.3208C299.259 23.3625 299.203 23.3935 299.143 23.4114C299.083 23.4294 299.019 23.4341 298.957 23.425C298.284 23.425 294.671 23.3246 290.957 23.3246C287.244 23.3246 283.481 23.425 282.496 23.425C281.998 23.425 281.799 23.2492 281.799 22.8852C281.799 22.3077 281.923 22.3077 282.833 22.3077C284.154 22.3077 284.453 22.3077 284.627 21.7554C284.764 20.446 284.83 19.1301 284.827 17.8135V5.37294C284.827 3.43969 284.764 2.69903 284.253 2.62371C283.954 2.62371 282.596 2.48562 282.334 2.42285C282.073 2.36008 282.135 2.22199 282.135 2.04624C282.135 1.46878 282.297 1.33069 283.07 1.33069C283.842 1.33069 287.02 1.44367 289.848 1.44367C292.951 1.44367 295.991 1.33069 297.599 1.33069C298.01 1.33069 298.047 1.50644 298.047 2.0839C298.047 3.17607 298.11 4.66994 298.11 6.12616C298.11 6.4651 298.11 6.80405 297.599 6.80405C297.088 6.80405 297.063 6.56553 296.901 5.64912C296.49 3.37692 295.007 2.42285 289.612 2.42285C288.702 2.42285 288.228 2.51073 288.066 2.51073Z" fill="#62306D"/>
<path d="M328.377 20.0857C328.377 20.0857 328.377 20.8641 328.439 21.1779C328.501 21.4917 328.613 22.2575 328.613 22.3328C328.61 22.3951 328.585 22.454 328.541 22.4981C328.497 22.5422 328.439 22.5683 328.377 22.5713C328.277 22.5713 327.903 22.3956 327.841 22.3956C327.437 22.2726 327.016 22.2175 326.595 22.2324C325.572 22.3074 324.575 22.5937 323.667 23.0735C322.416 23.5827 321.078 23.8387 319.729 23.8267C312.539 23.8267 309.1 18.0521 309.1 12.7544C309.054 11.23 309.308 9.71135 309.848 8.28644C310.387 6.86153 311.202 5.5586 312.245 4.45304C313.288 3.34748 314.538 2.46123 315.923 1.84556C317.309 1.22989 318.801 0.897019 320.315 0.866204C321.729 0.853446 323.126 1.18051 324.389 1.82028C324.966 2.15621 325.565 2.44989 326.184 2.69903C326.483 2.69903 326.52 2.56094 326.919 1.82028C326.976 1.7229 327.055 1.64107 327.151 1.58197C327.247 1.52288 327.355 1.48832 327.467 1.48133C327.527 1.47378 327.588 1.47974 327.646 1.49878C327.704 1.51782 327.756 1.54948 327.8 1.59147C327.845 1.63347 327.879 1.68476 327.901 1.74168C327.923 1.7986 327.932 1.85974 327.928 1.92071C327.928 2.25965 327.828 3.79119 327.828 4.09247C327.828 4.7076 327.966 7.25598 327.966 7.85855C327.966 8.09707 327.903 8.37325 327.392 8.37325C326.881 8.37325 326.857 8.27282 326.682 7.21832C326.51 5.83057 325.883 4.54044 324.9 3.55267C323.608 2.45515 321.967 1.86253 320.277 1.88304C314.421 1.88304 313.063 8.43601 313.063 13.0557C313.063 15.8426 313.573 22.8099 320.115 22.8099C321.361 22.8099 324.726 22.3956 325.037 20.1611C325.094 19.5393 325.115 18.9148 325.1 18.2906C325.1 16.759 324.626 16.2443 322.67 16.2443C322.134 16.2443 321.972 16.1439 321.972 15.7799C321.972 15.4158 322.134 15.2275 322.47 15.2275C323.143 15.2275 325.947 15.3279 326.545 15.3279C327.143 15.3279 329.86 15.2275 330.395 15.2275C330.931 15.2275 331.006 15.3279 331.006 15.805C331.006 16.282 330.732 16.282 330.358 16.282C328.713 16.282 328.339 16.4201 328.339 17.8512L328.377 20.0857Z" fill="#62306D"/>
<path d="M338.682 2.51073V11.2982C342.158 11.2982 343.031 11.0221 343.442 8.07196C343.442 7.83344 343.504 7.43173 344.015 7.43173C344.526 7.43173 344.551 7.79578 344.551 8.21005C344.551 8.98837 344.451 10.3818 344.451 12.29C344.451 13.8089 344.551 14.7003 344.551 15.3405C344.551 16.2192 344.314 16.5331 343.915 16.5331C343.516 16.5331 343.367 16.056 343.367 15.8803C342.968 13.1311 343.13 12.3527 338.682 12.29V19.2823C338.682 21.5545 338.682 21.793 338.993 22.0692C339.468 22.275 339.987 22.357 340.501 22.3077C346.906 22.3077 348.463 21.4917 349.074 18.4287C349.336 17.0729 349.41 16.9725 349.809 16.9725C350.208 16.9725 350.32 17.3491 350.32 17.5499C350.32 18.027 350.108 22.4082 350.083 22.9856C350.082 23.0496 350.067 23.1126 350.04 23.1704C350.013 23.2283 349.974 23.2796 349.926 23.3212C349.878 23.3627 349.821 23.3934 349.76 23.4113C349.699 23.4292 349.635 23.4339 349.572 23.425C348.9 23.425 345.298 23.3246 341.585 23.3246C337.872 23.3246 334.109 23.425 333.124 23.425C332.613 23.425 332.414 23.2492 332.414 22.8852C332.414 22.3077 332.551 22.3077 333.461 22.3077C334.769 22.3077 335.081 22.3077 335.243 21.7554C335.384 20.4462 335.454 19.1304 335.454 17.8135V5.37294C335.454 3.43969 335.38 2.69903 334.881 2.62371C334.383 2.54839 333.224 2.48562 332.95 2.42285C332.676 2.36008 332.75 2.22199 332.75 2.04624C332.75 1.46878 332.925 1.33069 333.697 1.33069C334.47 1.33069 337.635 1.44367 340.476 1.44367C343.579 1.44367 346.607 1.33069 348.227 1.33069C348.625 1.33069 348.663 1.50644 348.663 2.0839C348.663 3.17607 348.738 4.66994 348.738 6.12616C348.738 6.4651 348.737 6.80405 348.227 6.80405C347.716 6.80405 347.691 6.56553 347.516 5.64912C347.118 3.37692 345.635 2.42285 340.239 2.42285C339.33 2.42285 338.856 2.51073 338.682 2.51073Z" fill="#62306D"/>
<path d="M358.407 17.575C358.407 18.3533 358.469 21.3411 358.569 21.7428C358.669 22.1445 359.005 22.1947 360.052 22.2198C361.099 22.2449 361.373 22.3202 361.373 22.7345C361.373 23.1488 361.373 23.312 361.036 23.312C360.326 23.312 357.46 23.2115 356.812 23.2115C356.164 23.2115 353.174 23.312 352.638 23.312C352.102 23.312 352.202 23.1362 352.202 22.8349C352.202 22.5336 352.202 22.2198 353.074 22.2198C355.13 22.2198 355.092 21.6423 355.092 20.1485C355.092 19.1693 355.167 17.4746 355.167 16.8594V5.13438C355.13 2.89984 355.13 2.51068 353.884 2.51068C352.874 2.51068 352.7 2.41025 352.7 1.95832C352.7 1.5064 352.837 1.38086 353.211 1.38086C353.585 1.38086 356.239 1.49384 356.75 1.49384C357.261 1.49384 360.488 1.38086 360.65 1.38086C360.812 1.38086 361.161 1.45618 361.161 1.93322C361.161 2.41025 360.999 2.51068 360.114 2.51068C358.793 2.51068 358.694 2.7492 358.594 3.01283C358.473 4.20978 358.419 5.41263 358.432 6.6157L358.407 17.575Z" fill="#62306D"/>
<path d="M383.241 20.0858C383.241 20.0858 383.241 20.8641 383.316 21.1779C383.391 21.4918 383.478 22.2576 383.478 22.3329C383.475 22.3952 383.449 22.4541 383.405 22.4982C383.361 22.5422 383.303 22.5684 383.241 22.5714C383.141 22.5714 382.768 22.3956 382.705 22.3956C382.302 22.2722 381.881 22.217 381.459 22.2324C380.811 22.2324 380.587 22.2952 378.519 23.0735C377.268 23.5828 375.93 23.8387 374.581 23.8268C367.404 23.8268 363.964 18.0521 363.964 12.7545C363.916 11.2296 364.169 9.71025 364.709 8.28459C365.248 6.85893 366.063 5.55534 367.106 4.44944C368.149 3.34353 369.4 2.45733 370.786 1.84224C372.172 1.22714 373.665 0.895399 375.179 0.866255C376.597 0.854863 377.998 1.1818 379.266 1.82033C379.837 2.15851 380.433 2.45228 381.048 2.69908C381.347 2.69908 381.385 2.56099 381.796 1.82033C381.85 1.72317 381.927 1.64122 382.021 1.58201C382.114 1.52279 382.221 1.48819 382.332 1.48138C382.392 1.47409 382.454 1.48014 382.512 1.4991C382.57 1.51807 382.624 1.54951 382.669 1.59126C382.714 1.63301 382.749 1.68408 382.773 1.74095C382.796 1.79783 382.807 1.85917 382.805 1.92076C382.805 2.2597 382.705 3.79124 382.705 4.09253C382.705 4.70765 382.83 7.25603 382.83 7.8586C382.83 8.09712 382.768 8.3733 382.269 8.3733C381.771 8.3733 381.721 8.27287 381.559 7.21837C381.396 5.82207 380.778 4.5196 379.802 3.51506C378.514 2.41939 376.877 1.82682 375.192 1.84543C369.323 1.84543 367.977 8.3984 367.977 13.0181C367.977 15.805 368.475 22.7723 375.017 22.7723C376.263 22.7723 379.64 22.358 380.001 20.1235C380.038 19.5005 380.038 18.8759 380.001 18.253C380.001 16.7214 379.54 16.2067 377.584 16.2067C377.036 16.2067 376.874 16.1063 376.874 15.7422C376.874 15.3782 377.036 15.1899 377.372 15.1899C378.058 15.1899 380.849 15.2903 381.459 15.2903C382.07 15.2903 384.761 15.1899 385.297 15.1899C385.833 15.1899 385.908 15.2903 385.908 15.7674C385.908 16.2444 385.634 16.2444 385.272 16.2444C383.615 16.2444 383.241 16.3825 383.241 17.8136V20.0858Z" fill="#62306D"/>
<path d="M393.559 2.51073V11.2982C397.023 11.2982 397.907 11.0221 398.306 8.07196C398.306 7.83344 398.381 7.43173 398.879 7.43173C399.378 7.43173 399.428 7.79578 399.428 8.21005C399.428 8.98837 399.315 10.3818 399.315 12.29C399.315 13.8089 399.428 14.7003 399.428 15.3405C399.428 16.2192 399.191 16.5331 398.78 16.5331C398.368 16.5331 398.244 16.056 398.244 15.8803C397.833 13.1311 398.007 12.3527 393.559 12.29V19.2823C393.559 21.5545 393.559 21.793 393.858 22.0692C394.337 22.2745 394.859 22.3565 395.378 22.3077C401.783 22.3077 403.328 21.4917 403.938 18.4287C404.213 17.0729 404.275 16.9725 404.686 16.9725C405.097 16.9725 405.184 17.3491 405.184 17.5499C405.184 18.027 404.985 22.4082 404.948 22.9856C404.948 23.049 404.935 23.1118 404.91 23.1696C404.884 23.2275 404.846 23.2791 404.799 23.3208C404.751 23.3625 404.696 23.3935 404.635 23.4114C404.575 23.4294 404.512 23.4341 404.449 23.425C403.776 23.425 400.163 23.3246 396.45 23.3246C392.736 23.3246 388.973 23.425 387.989 23.425C387.49 23.425 387.278 23.2492 387.278 22.8852C387.278 22.3077 387.416 22.3077 388.325 22.3077C389.646 22.3077 389.945 22.3077 390.119 21.7554C390.294 21.203 390.319 18.391 390.319 17.8135V5.37294C390.319 3.43969 390.244 2.69903 389.746 2.62371C389.447 2.62371 388.088 2.48562 387.827 2.42285C387.565 2.36008 387.615 2.22199 387.615 2.04624C387.615 1.46878 387.789 1.33069 388.562 1.33069C389.334 1.33069 392.512 1.44367 395.34 1.44367C398.443 1.44367 401.484 1.33069 403.091 1.33069C403.502 1.33069 403.54 1.50644 403.54 2.0839C403.54 3.17607 403.54 4.66994 403.54 6.12616C403.54 6.4651 403.54 6.80405 403.029 6.80405C402.518 6.80405 402.493 6.56553 402.331 5.64912C401.92 3.37692 400.437 2.42285 395.041 2.42285C394.194 2.42285 393.758 2.51073 393.559 2.51073Z" fill="#62306D"/>
<path d="M413.109 20.3243C413.109 22.019 413.109 22.1571 414.356 22.1947C415.739 22.1947 415.901 22.2575 415.901 22.835C415.901 23.1739 415.739 23.312 415.327 23.312C414.916 23.312 412.237 23.2116 411.726 23.2116C411.215 23.2116 408.586 23.312 408.088 23.312C407.589 23.312 407.203 23.312 407.203 22.7722C407.203 22.2324 407.515 22.2198 409.197 22.1571C409.348 22.1803 409.502 22.1522 409.635 22.0772C409.768 22.0021 409.873 21.8845 409.932 21.7428C410.049 20.6633 410.095 19.5771 410.069 18.4914V4.77037C410.069 2.72414 410.069 2.62371 409.197 2.62371C407.278 2.62371 407.24 2.48562 407.24 1.98347C407.24 1.48133 407.888 1.44367 408.898 1.44367C410.443 1.44367 415.028 1.33069 417.122 1.33069C421.707 1.33069 424.1 3.47735 424.1 6.52787C424.1 10.1684 420.922 11.9636 417.122 12.0012C420.661 12.4783 421.77 14.3488 422.717 16.759C424.125 20.387 424.536 21.4039 425.882 21.4039C426.13 21.4154 426.376 21.346 426.583 21.2058C426.789 21.0656 426.945 20.8621 427.028 20.6255C427.265 19.9853 427.302 19.8849 427.601 19.8849C427.9 19.8849 428.037 20.387 428.037 20.5251C427.937 21.4437 427.497 22.2903 426.804 22.8955C426.11 23.5007 425.216 23.8199 424.299 23.789C423.207 23.7198 422.17 23.2841 421.352 22.5515C420.534 21.8188 419.984 20.8314 419.788 19.7468C419.614 19.094 419.14 16.3197 419.016 15.7422C418.368 13.0181 417.184 12.4029 413.184 12.4029L413.109 20.3243ZM413.109 11.5367H414.617C418.094 11.5367 420.424 9.98011 420.424 6.61575C420.424 2.98776 417.857 2.4103 415.091 2.4103C414.218 2.4103 413.546 2.4103 413.109 2.47306V11.5367Z" fill="#62306D"/>
<path d="M203.284 37.6608C203.004 38.3776 202.567 39.0218 202.006 39.5455C201.445 40.0692 200.775 40.4591 200.044 40.6862C199.498 40.8493 198.931 40.9339 198.362 40.9372C197.08 40.9994 195.826 40.5481 194.873 39.6819C194.313 39.1232 193.877 38.4523 193.591 37.7127C193.306 36.9731 193.178 36.1812 193.216 35.3886C193.216 32.087 195.197 29.8273 198.536 29.8273C199.255 29.7935 199.973 29.9148 200.641 30.1833C201.309 30.4518 201.913 30.8612 202.412 31.384C202.814 31.8816 203.126 32.4468 203.334 33.0536L201.913 33.3423C201.807 32.9893 201.647 32.6548 201.44 32.3506C201.105 31.8928 200.665 31.5242 200.156 31.277C199.648 31.0297 199.088 30.9113 198.524 30.932C197.999 30.9362 197.479 31.0384 196.991 31.2333C196.267 31.6185 195.671 32.2092 195.277 32.9321C194.883 33.655 194.708 34.4785 194.773 35.3007C194.773 37.8114 196.019 39.0668 197.004 39.4936C197.494 39.6762 198.014 39.7656 198.536 39.7572C198.898 39.7628 199.259 39.7163 199.608 39.6191C200.029 39.4957 200.42 39.2889 200.761 39.0108C201.101 38.7327 201.383 38.389 201.589 37.9997C201.802 37.5773 201.95 37.1242 202.025 36.6565L203.533 36.8322C203.477 37.116 203.394 37.3935 203.284 37.6608Z" fill="#62306D"/>
<path d="M216.455 40.6987L213.576 36.2045H210.872V40.6987H209.502V30.1286H213.414C213.738 30.1286 214.087 30.1286 214.411 30.1286C214.895 30.0989 215.379 30.1794 215.828 30.3642C216.277 30.5489 216.678 30.8331 217.003 31.1956C217.448 31.776 217.673 32.4969 217.639 33.2293C217.657 33.7366 217.537 34.2393 217.291 34.6822C217.045 35.1252 216.682 35.4912 216.243 35.74C215.909 35.9164 215.546 36.0312 215.171 36.079L218.124 40.6736L216.455 40.6987ZM215.421 31.5722C214.848 31.3088 214.215 31.2048 213.589 31.2709H210.872V35.037H213.664C214.071 35.1086 214.489 35.081 214.884 34.9565C215.278 34.832 215.637 34.6143 215.931 34.3215C216.213 33.8892 216.317 33.3636 216.222 32.8555C216.127 32.3473 215.839 31.8963 215.421 31.5973V31.5722Z" fill="#62306D"/>
<path d="M223.732 40.6987V30.1285H225.152V40.7238L223.732 40.6987Z" fill="#62306D"/>
<path d="M238.946 39.8325C238.497 40.2394 237.971 40.5504 237.399 40.7467C236.827 40.943 236.222 41.0207 235.619 40.9749C234.612 40.9883 233.619 40.7328 232.741 40.2342C232.416 40.0212 232.129 39.7537 231.894 39.4434C231.458 38.8148 231.207 38.075 231.171 37.3092L232.666 37.1084C232.668 37.8119 232.925 38.4904 233.389 39.0165C233.695 39.3096 234.057 39.5357 234.454 39.6805C234.851 39.8252 235.273 39.8855 235.694 39.8576C236.022 39.8622 236.348 39.8242 236.666 39.7446C237.128 39.6569 237.545 39.4095 237.845 39.0452C238.146 38.6808 238.31 38.2222 238.311 37.7486C238.34 37.5103 238.306 37.2685 238.211 37.048C238.117 36.8274 237.967 36.636 237.775 36.4933C237.338 36.198 236.839 36.0089 236.317 35.9409L235.407 35.74C234.608 35.6104 233.832 35.3651 233.102 35.0119C232.666 34.8162 232.297 34.4948 232.042 34.0882C231.787 33.6816 231.657 33.208 231.669 32.7272C231.67 32.3286 231.76 31.9354 231.933 31.5767C232.105 31.2181 232.356 30.9033 232.666 30.6558C233.472 30.0372 234.471 29.7299 235.482 29.7896C236.482 29.7291 237.474 30.0075 238.298 30.5805C238.644 30.8304 238.933 31.1513 239.146 31.522C239.408 31.9912 239.577 32.507 239.644 33.041L238.224 33.1289C238.214 32.9166 238.18 32.706 238.124 32.5012C237.912 31.748 237.239 30.8818 235.52 30.8818C235.15 30.8542 234.778 30.9023 234.427 31.0231C234.075 31.1439 233.752 31.335 233.476 31.5848C233.244 31.8529 233.116 32.196 233.115 32.5514C233.119 32.832 233.211 33.1042 233.376 33.3298C233.874 33.8158 234.519 34.1206 235.208 34.196L236.367 34.4847L237.189 34.6981C237.639 34.775 238.068 34.9411 238.453 35.1868C238.838 35.4325 239.171 35.7528 239.432 36.1292C239.693 36.5736 239.827 37.0819 239.819 37.598C239.833 38.0108 239.763 38.4222 239.613 38.8066C239.463 39.191 239.236 39.5402 238.946 39.8325Z" fill="#62306D"/>
<path d="M246.012 40.6987V30.1285H247.432V40.7238L246.012 40.6987Z" fill="#62306D"/>
<path d="M261.226 39.8325C260.777 40.2394 260.25 40.5504 259.679 40.7467C259.107 40.943 258.501 41.0207 257.899 40.9749C256.895 40.9897 255.906 40.734 255.033 40.2342C254.702 40.0248 254.41 39.7569 254.173 39.4433C253.738 38.8148 253.487 38.075 253.451 37.3092L254.958 37.1084C254.947 37.812 255.201 38.4936 255.669 39.0165C255.974 39.3096 256.337 39.5357 256.734 39.6805C257.13 39.8252 257.553 39.8855 257.974 39.8576C258.301 39.8622 258.628 39.8242 258.946 39.7446C259.409 39.6573 259.828 39.4104 260.13 39.0462C260.432 38.6821 260.599 38.2233 260.603 37.7486C260.629 37.5105 260.594 37.2696 260.5 37.0495C260.406 36.8294 260.257 36.6377 260.067 36.4933C259.625 36.1998 259.122 36.011 258.597 35.9409L257.687 35.74C256.888 35.6087 256.112 35.3635 255.382 35.0119C254.954 34.8066 254.593 34.4826 254.342 34.0779C254.09 33.6733 253.958 33.2047 253.961 32.7272C253.959 32.3281 254.048 31.9339 254.221 31.5749C254.394 31.2158 254.646 30.9014 254.958 30.6558C255.76 30.0381 256.755 29.7307 257.762 29.7896C258.762 29.7271 259.754 30.0057 260.578 30.5805C260.924 30.8304 261.212 31.1513 261.425 31.522C261.687 31.9912 261.857 32.507 261.924 33.041L260.503 33.1289C260.494 32.9166 260.46 32.706 260.404 32.5012C260.192 31.748 259.519 30.8818 257.799 30.8818C257.429 30.8542 257.057 30.9023 256.706 31.0231C256.355 31.1439 256.032 31.335 255.756 31.5848C255.521 31.883 255.41 32.2605 255.444 32.6393C255.449 32.9199 255.54 33.1921 255.706 33.4176C256.204 33.9037 256.848 34.2085 257.538 34.2838L258.697 34.5726L259.519 34.786C259.968 34.8629 260.398 35.029 260.783 35.2747C261.168 35.5204 261.501 35.8407 261.762 36.2171C262.023 36.6614 262.156 37.1697 262.148 37.6858C262.144 38.0875 262.061 38.4844 261.902 38.853C261.744 39.2217 261.514 39.5547 261.226 39.8325Z" fill="#62306D"/>
<path d="M286.596 37.6607C286.311 38.3766 285.871 39.0194 285.308 39.5427C284.746 40.066 284.075 40.4566 283.344 40.6861C282.798 40.85 282.231 40.9345 281.662 40.9372C280.38 40.9966 279.127 40.5456 278.173 39.6819C277.615 39.1221 277.181 38.4507 276.898 37.7111C276.614 36.9716 276.488 36.1803 276.528 35.3885C276.528 32.0869 278.497 29.8273 281.836 29.8273C282.557 29.7916 283.277 29.9121 283.948 30.1806C284.618 30.4492 285.224 30.8595 285.724 31.3839C286.131 31.8785 286.443 32.4445 286.646 33.0536L285.238 33.3423C285.123 32.9903 284.959 32.6564 284.752 32.3506C284.418 31.8919 283.978 31.5228 283.469 31.2754C282.961 31.0281 282.4 30.9102 281.836 30.932C281.311 30.9373 280.792 31.0394 280.303 31.2333C279.579 31.6185 278.983 32.2091 278.589 32.932C278.195 33.655 278.02 34.4785 278.085 35.3007C278.085 37.8114 279.331 39.0667 280.316 39.4935C280.806 39.6748 281.326 39.7642 281.848 39.7572C282.21 39.7637 282.571 39.7171 282.92 39.6191C283.342 39.499 283.736 39.2934 284.076 39.015C284.417 38.7366 284.698 38.3911 284.901 37.9997C285.115 37.5773 285.262 37.1242 285.337 36.6564L286.858 36.8322C286.786 37.1131 286.698 37.3897 286.596 37.6607Z" fill="#62306D"/>
<path d="M292.826 40.6987V30.1285H300.066V31.3839H294.172V34.6604H299.293V35.9157H294.172V39.5312H300.303V40.7865L292.826 40.6987Z" fill="#62306D"/>
<path d="M313.237 40.6987L307.468 32.0869L307.605 40.6987H306.271V30.1285H307.605L313.287 38.6273V30.1285H314.533V40.7238L313.237 40.6987Z" fill="#62306D"/>
<path d="M324.85 31.3839V40.7489H323.442V31.3839H320.24V30.1285H327.941V31.3839H324.85Z" fill="#62306D"/>
<path d="M333.847 40.6987V30.1285H341.087V31.3839H335.193V34.6604H340.314V35.9157H335.193V39.5312H341.274V40.7865L333.847 40.6987Z" fill="#62306D"/>
<path d="M354.245 40.6987L351.392 36.2045H348.675V40.6987H347.305V30.1286H351.217C351.554 30.1286 351.89 30.1286 352.227 30.1286C352.71 30.0989 353.195 30.1794 353.643 30.3642C354.092 30.5489 354.494 30.8331 354.818 31.1956C355.258 31.7785 355.483 32.4976 355.454 33.2293C355.47 33.7361 355.348 34.2377 355.103 34.6802C354.857 35.1226 354.496 35.489 354.058 35.74C353.723 35.9145 353.361 36.0292 352.987 36.079L355.927 40.6736L354.245 40.6987ZM353.223 31.5722C352.65 31.3088 352.018 31.2048 351.392 31.2709H348.663V35.037H351.466C351.872 35.1076 352.288 35.0794 352.68 34.9549C353.073 34.8305 353.43 34.6133 353.722 34.3215C353.953 34.0063 354.072 33.6212 354.058 33.2293C354.077 32.9034 354.01 32.5783 353.863 32.2872C353.716 31.996 353.496 31.7493 353.223 31.5722Z" fill="#62306D"/>
<path d="M146.961 0C142.049 0.00251777 137.304 1.79641 133.602 5.05015C129.901 8.30388 127.493 12.7975 126.825 17.7006C127.088 17.5688 127.364 17.4636 127.647 17.3867L127.809 18.0018C128.208 18.0018 127.934 16.9975 128.532 17.4997C128.657 17.5625 128.183 17.5876 128.083 17.8889C128.943 18.2655 128.482 17.1984 129.255 17.1733L129.143 17.914C129.778 18.2655 129.766 17.4495 129.928 16.9976C130.663 16.0435 130.675 18.2529 131.734 17.5374C131.872 17.1607 131.61 17.0227 131.734 16.646C132.544 16.7465 132.594 16.2192 133.404 16.3197C133.94 17.3742 133.005 16.3197 133.566 17.3365L132.931 17.1482C133.516 17.6754 132.482 17.3491 132.619 17.9893C133.03 18.1274 133.566 17.5248 134.065 17.2612C134.065 17.7508 133.479 17.3742 133.766 18.0144L134.015 17.7884C134.015 17.9391 134.015 18.1274 133.803 18.1274C133.94 18.5793 134.114 18.1274 134.364 18.1274C134.353 17.7983 134.294 17.4726 134.189 17.1607C134.213 17.2176 134.243 17.2723 134.276 17.3239C134.725 16.5707 135.635 17.0101 136.033 16.4201C136.033 16.5707 136.033 16.6084 136.033 16.7214C136.345 16.7214 136.607 16.0435 137.018 15.8301C137.267 16.169 137.018 16.9348 137.616 16.6712C137.703 16.2569 137.367 15.5664 137.927 15.5288C137.927 15.5288 137.454 15.9054 137.741 16.1816C138.264 15.8426 137.927 16.2945 138.463 16.7339C138.712 16.1188 139.024 16.8971 139.024 15.9305C139.236 16.5582 139.174 16.3197 139.547 16.7465C139.36 16.2443 140.17 16.1816 140.121 15.5664C140.295 16.2694 139.585 16.4703 140.121 17.1859C140.407 16.6963 140.968 16.4954 140.98 15.7296C141.23 15.8928 141.342 16.169 141.716 16.2318C141.716 16.2318 141.591 16.3322 141.554 16.4075C142.189 15.8552 143.186 16.3322 143.522 15.3781C143.423 16.508 144.918 15.3781 144.444 16.5205C144.778 16.3591 145.053 16.0955 145.229 15.7673C145.229 16.6461 145.915 15.9682 146.226 16.4829C146.363 15.9933 146.862 16.1439 147.148 15.8552C147.077 15.915 147.026 15.9945 146.999 16.0837C146.972 16.1729 146.972 16.2681 146.999 16.3573C147.335 15.9807 147.261 16.3573 147.547 16.7465C147.996 16.4703 147.46 16.0811 147.722 15.6543C148.12 15.8552 147.722 16.2192 147.859 16.5833L148.444 15.6794C148.581 15.8086 148.669 15.9817 148.693 16.169C148.893 15.9179 149.067 15.5288 149.366 15.9556H148.855L149.055 16.4075L149.653 15.8175C150.5 16.4577 150.239 17.4244 150.176 18.3282L150.102 18.6797V18.3659L149.753 18.5291C149.75 18.6481 149.788 18.7644 149.861 18.8583C149.933 18.9521 150.036 19.0177 150.151 19.0438C150.288 19.2572 149.603 20.0606 149.229 20.1862C148.232 20.1862 149.017 19.1066 148.32 18.9308L147.435 19.4832V19.1693C147.285 18.9559 147.211 19.3074 147.173 19.3827C147.173 18.9182 146.451 19.2321 146.089 19.1693L146.226 19.571C145.242 20.5377 144.606 18.5667 143.821 19.1066L143.286 19.8221L143.136 19.2321C142.825 19.5961 142.787 20.0606 142.239 19.8723C140.295 18.8806 138.339 20.2991 136.37 19.7844C136.37 19.8974 136.47 19.9351 136.594 20.023C134.787 18.6797 134.102 21.7303 132.495 20.7385L132.582 20.5126C131.822 20.7009 132.657 20.2866 132.071 20.023C132.071 20.726 131.149 20.6632 130.738 20.977C130.738 20.8264 130.937 20.8138 131.062 20.7009C130.962 20.5628 130.875 20.1485 130.675 20.2991C130.302 21.3536 129.23 21.3787 128.495 21.7554C128.345 21.316 127.622 21.0021 127.174 20.3243C127.112 20.5 127.012 20.8641 126.925 21.2156C126.971 21.2419 127.013 21.2758 127.049 21.316C127.049 21.316 127.298 21.2281 127.249 21.203C127.622 21.5922 127.249 21.5545 127.373 22.0692C127.15 22.1278 126.918 22.149 126.688 22.132C127.005 26.1009 128.464 29.8907 130.885 33.038C133.306 36.1852 136.585 38.5534 140.321 39.853C144.057 41.1525 148.088 41.3272 151.921 40.3555C155.753 39.3839 159.222 37.3081 161.903 34.3819C164.583 31.4557 166.359 27.8061 167.013 23.8792C167.668 19.9523 167.172 15.9185 165.587 12.2709C164.002 8.62334 161.396 5.52018 158.088 3.34089C154.78 1.1616 150.914 0.000649381 146.961 0V0ZM134.214 17.1231C134.169 16.9576 134.098 16.8006 134.002 16.6586C134.65 16.5456 134.127 16.7465 134.214 17.1231Z" fill="#F49022"/>
<path d="M126.962 21.3411C126.962 21.3411 126.962 21.3411 127.062 21.2783H126.962V21.3411Z" fill="#F49022"/>
<path d="M126.875 21.7679V21.8307L126.7 21.8935V22.0567C126.725 22.071 126.753 22.0785 126.781 22.0785C126.81 22.0785 126.838 22.071 126.862 22.0567C126.884 21.9619 126.888 21.8642 126.875 21.7679Z" fill="#F49022"/>
<path d="M126.638 21.1026C126.638 21.203 126.638 21.2909 126.638 21.3913H126.937V21.2156C126.902 21.1713 126.856 21.1374 126.803 21.1175C126.75 21.0976 126.693 21.0925 126.638 21.1026Z" fill="#F49022"/>
<path d="M19.3764 23.1865C19.4545 23.1523 19.5169 23.0895 19.5508 23.0107C19.4387 23.061 19.3639 23.1112 19.3764 23.1865Z" fill="#62306D"/>
<path d="M40.6717 20.0858C40.6717 20.023 40.6717 19.9728 40.6717 19.91L40.4973 19.9854C40.5471 20.0317 40.6068 20.066 40.6717 20.0858Z" fill="#62306D"/>
<path d="M39.6873 21.4667C39.5378 21.4667 39.0269 21.0022 38.5285 20.9896C38.2917 21.2533 39.139 21.1528 38.8774 21.3914C38.0425 20.7762 37.2326 21.8182 36.1609 21.4792L36.2731 21.1654C36.0203 21.1416 35.7658 21.1416 35.513 21.1654L35.8868 21.3035C35.65 21.3788 35.0644 21.3035 35.2388 21.1152C34.703 21.3914 34.566 21.2533 33.9928 21.2156C34.5535 21.2156 33.9928 21.2156 34.404 21.0775C34.0628 20.9964 33.7048 21.0272 33.3822 21.1654C33.4445 21.0524 33.2202 20.9143 33.0582 20.9394C32.57 21.1148 32.0645 21.2369 31.5505 21.3035V21.3411C30.6432 21.3363 29.7376 21.4204 28.8465 21.5922C29.1829 21.8056 28.1861 21.8433 27.9369 21.9814C27.8621 21.9186 27.8247 21.8182 27.6752 21.8307C27.6752 22.0693 27.3512 22.0065 27.2391 22.1195C26.9276 22.1195 27.2391 21.8433 26.7282 21.9186C26.5288 21.9186 26.5288 22.0944 26.5537 22.1697C26.3244 22.0611 26.0713 22.0136 25.8186 22.0316C25.8933 21.9688 26.0553 22.0316 26.1176 22.0316C26.1799 22.0316 25.9556 22.0316 25.9432 21.8307C25.694 21.8307 25.8809 22.0567 25.5569 22.019L25.8186 21.8056C25.6815 21.8056 25.5444 21.8684 25.4821 21.8935C25.669 21.8182 25.6067 21.6424 25.5693 21.542C24.884 21.768 25.5693 22.0316 25.4946 22.2325C24.9198 22.2748 24.3537 22.3974 23.8124 22.5965V22.3831C23.6458 22.4147 23.4933 22.4981 23.3763 22.6216H23.6753L23.5133 22.7471C23.5286 22.7067 23.5496 22.6686 23.5756 22.6342L23.1894 22.6969C23.4012 22.584 23.4635 22.5086 23.451 22.3454C23.0523 22.471 22.4791 22.5086 22.4168 22.7974C21.8544 22.8625 21.2881 22.8876 20.7221 22.8727C20.3234 22.9982 19.8499 23.0484 19.6007 23.1489C19.6007 23.2367 19.6007 23.4376 19.4885 23.4501C19.4774 23.4091 19.4774 23.3657 19.4885 23.3246C19.1521 23.4501 18.5166 23.1991 18.3297 23.5506C17.8811 23.4753 18.3297 23.5506 18.3297 23.287C17.8811 23.2242 17.5571 23.7012 17.3453 23.3999C16.8842 23.6133 17.4699 23.3999 17.3453 23.6259C17.1708 23.3497 16.4357 23.7891 15.9497 23.7263C15.7752 23.9021 16.174 23.7263 15.8625 23.9648C15.8625 23.877 15.688 23.9648 15.5883 23.9648V24.1657L14.9528 23.651C14.3298 24.0402 15.1647 23.9272 14.2924 24.241C13.9934 24.128 13.6818 24.5549 13.0463 24.58C13.2706 24.58 13.1087 24.4795 13.171 24.4042L12.8221 24.5674C12.4732 24.5674 12.5728 24.7055 12.1741 24.7055C12.4109 24.5925 12.2987 24.4795 12.1741 24.4544L11.7006 24.8059L11.8501 24.5172C11.3268 24.6553 10.6788 25.2453 10.3299 25.0193L10.5667 24.9064C10.5667 24.9064 10.3299 24.7432 10.0184 24.9691C9.91871 24.9691 9.89379 25.1825 10.0184 25.1198H9.74426C9.81903 24.9315 10.4421 24.693 10.8283 24.5298C10.7287 24.6302 10.4296 24.7683 10.5542 24.831C10.8906 24.6678 11.2022 24.467 11.5386 24.3038C11.589 24.2648 11.6433 24.2311 11.7006 24.2034H11.8127C11.791 24.2113 11.7715 24.2247 11.7563 24.2423C11.741 24.2598 11.7304 24.281 11.7255 24.3038L11.5635 24.3666C11.4672 24.4566 11.387 24.5628 11.3268 24.6804C11.738 24.6804 11.5884 24.4921 11.875 24.3791C12.1616 24.2661 12.0993 24.3791 12.037 24.4921C12.3618 24.3206 12.718 24.218 13.0837 24.1908C13.0837 24.1908 12.6725 24.4293 12.9467 24.4544C13.632 24.1657 13.7192 23.9397 14.4669 23.6008C15.2145 23.2618 16.2612 23.3372 16.8344 22.9731C16.8344 22.8852 16.336 22.9731 16.7347 22.7974C16.7347 22.9731 16.9964 22.7974 17.0338 22.8978C17.4201 22.5463 17.6942 22.7974 17.9808 22.5588C17.9185 22.6342 18.1926 22.6342 18.3671 22.6593C18.3576 22.6308 18.3576 22.5999 18.3671 22.5714V22.6593C18.3671 22.8601 18.878 22.6593 18.2923 23.0484C18.8904 22.6091 19.4761 22.8727 19.8748 22.2952H19.7004H20.3857C20.6329 22.2155 20.8986 22.2155 21.1458 22.2952C20.9963 22.3831 20.7471 22.4333 20.5851 22.5086C20.9838 22.6342 21.3078 22.2199 21.7065 22.1195C21.7065 22.2827 21.2953 22.2576 21.4449 22.4208C21.7092 22.3629 21.9648 22.27 22.205 22.1446V22.2325C22.9401 22.2952 22.3919 21.7554 22.9651 21.9563C22.9651 21.9563 22.9651 21.8433 22.9651 21.7931C23.1769 21.7931 23.6504 21.9312 23.2267 22.1195C23.4548 22.0886 23.668 21.9878 23.8373 21.8307C23.613 21.7429 23.5756 21.8307 23.4635 21.655L24.4354 21.3914C24.5476 21.3914 24.3731 21.4918 24.2361 21.5169C25.4821 21.8056 26.5164 20.726 27.912 21.1277C27.75 21.0022 27.9867 20.9771 28.0989 20.8516C28.535 20.8516 29.1705 20.726 29.5817 20.7762L29.4695 20.9018C30.2315 20.6343 31.0219 20.4573 31.8246 20.3745C31.8246 20.3745 31.8246 20.5503 31.7249 20.5879C32.1984 20.3243 32.8588 20.952 32.971 20.4749H32.7841C33.8149 20.3349 34.838 20.1422 35.8494 19.8975C36.1111 20.1611 35.2638 19.9728 35.5005 20.2866C36.2108 20.3494 36.9086 20.0732 37.6811 20.1235C37.5565 20.1235 37.5939 20.1988 37.5316 20.2239C38.3042 20.3745 37.4319 19.9351 38.0799 19.9477C38.0799 20.0983 38.0799 20.136 38.3042 20.1988L38.4786 19.9477C38.5076 19.9925 38.523 20.0449 38.523 20.0983C38.523 20.1518 38.5076 20.2042 38.4786 20.249C38.7528 19.91 39.6125 20.0983 39.8368 19.8096C39.8368 19.8849 39.7372 20.1611 39.8368 20.2741C39.9757 20.3052 40.1194 20.3067 40.2589 20.2786C40.3984 20.2505 40.5305 20.1934 40.6468 20.1109C40.6468 20.0105 40.7215 19.9854 40.8212 19.9854C40.6576 14.6053 38.4003 9.50592 34.5367 5.78827C30.673 2.07063 25.513 0.0330303 20.1709 0.115443C14.8288 0.197856 9.73316 2.39367 5.9843 6.22875C2.23544 10.0638 0.134148 15.2305 0.134148 20.613C0.134148 25.9956 2.23544 31.1622 5.9843 34.9973C9.73316 38.8324 14.8288 41.0282 20.1709 41.1106C25.513 41.1931 30.673 39.1554 34.5367 35.4378C38.4003 31.7202 40.6576 26.6208 40.8212 21.2407C40.3103 21.2533 40.2231 21.6048 39.6873 21.4667ZM36.136 19.7971L36.4101 19.9226L36.0114 20.0105L36.136 19.7971ZM12.5604 23.8519C12.8037 23.782 13.055 23.744 13.308 23.7389C13.1585 23.8895 12.6476 23.7389 12.5604 23.9021V23.8519ZM9.89379 24.7181H9.99348H9.89379C9.89379 24.7181 9.96856 24.7432 9.89379 24.7306V24.7181ZM7.98731 25.8479L7.85024 25.9232L8.09945 25.7223L7.98731 25.8479ZM9.14615 25.4587V25.3583C8.87078 25.5435 8.56155 25.6715 8.23652 25.7349C8.32374 25.6219 8.5605 25.5592 8.6228 25.4964C8.6851 25.4336 8.75987 25.4964 8.94678 25.4964C9.13369 25.4964 9.20845 25.2704 9.3829 25.0193C9.56981 25.1072 9.35798 25.3206 9.14615 25.4713V25.4587ZM16.0868 23.9523C16.3734 23.8644 16.2114 23.8142 16.0868 23.764L16.7472 23.6636C15.8749 23.8519 16.9465 23.9774 16.0868 23.9648V23.9523ZM18.8032 23.4753C18.8032 23.4753 18.4418 23.4753 18.8032 23.3246C19.1645 23.174 19.015 23.3748 18.8032 23.4878V23.4753ZM29.0833 21.5546C29.2453 21.5546 29.4322 21.5546 29.4197 21.5546H29.0833ZM33.5691 21.5546L33.6439 21.3411C33.5691 21.429 33.8432 21.4667 33.5691 21.5169V21.5546ZM38.0176 21.5546H38.1422H38.4786H38.0176Z" fill="#62306D"/>
<path d="M79.5615 25.8101C79.1379 24.9565 77.3934 25.6846 77.5429 24.6175C77.2648 24.5909 76.9842 24.6267 76.7214 24.7222C76.4586 24.8177 76.22 24.9706 76.0227 25.1699C76.1349 25.2578 76.2968 25.1699 76.4339 25.0946C76.2595 25.3456 75.5118 25.3456 75.1878 25.3205C75.7034 25.154 76.1848 24.8945 76.6084 24.5548C76.0329 24.6787 75.4699 24.8552 74.9262 25.082L74.814 24.5297C74.3156 24.8937 74.4527 24.0652 73.9418 24.5297L74.0165 24.7054C73.1692 24.5924 73.1069 25.1197 72.297 25.1071V24.9063C72.0353 24.7933 71.5742 25.2452 71.3499 24.7431H71.8733C71.8733 24.3665 71.4746 24.1656 71.3126 23.9647C70.7518 23.9647 71.0633 24.5422 70.7768 24.5548C70.6895 24.2033 70.7768 24.3665 70.9886 24.0526C70.3062 24.0492 69.6338 24.2175 69.0323 24.5422C69.0233 24.5225 69.0187 24.5011 69.0187 24.4794C69.0187 24.4578 69.0233 24.4364 69.0323 24.4167C68.3968 24.2786 67.7862 24.8058 67.3999 24.4167H67.537C67.0759 23.8643 66.1538 24.6928 66.1538 23.8518C65.9295 23.6635 66.6896 23.9647 66.3532 23.5128C65.6305 23.1488 65.7676 24.1279 65.1071 23.8015C65.1944 23.8015 65.1694 23.8015 65.2068 23.7137C64.7209 23.7137 64.0729 23.6509 63.5246 23.6509V23.7262H63.5496H63.6617C63.101 22.9856 61.6431 23.5756 60.9951 22.7219C61.1945 23.0232 60.7584 22.9981 60.7459 23.1111C60.7538 23.0933 60.7579 23.0741 60.7579 23.0546C60.7579 23.0351 60.7538 23.0159 60.7459 22.9981C60.4842 22.9353 60.4095 23.1864 60.2973 23.2743C60.1852 23.3622 60.2973 23.2743 60.2973 23.2743C60.2973 23.2743 60.1478 23.2743 60.0606 23.2115C59.9733 23.1488 60.2225 23.2743 60.2724 23.2115C60.073 22.9479 59.4749 23.3245 59.3628 23.2115C59.3628 23.3747 59.1135 23.2868 58.8768 23.2115C59.3877 23.1111 59.0886 22.8977 59.3378 22.6717C58.6276 22.4834 58.4033 23.2492 57.6681 23.0107L57.2943 22.6466C57.1448 23.086 56.4594 22.7973 56.4594 22.9605C56.3473 22.7973 56.1728 22.6843 56.2351 22.4709C55.9111 22.4709 55.4875 22.2323 55.3255 22.4709L55.6121 22.6341C54.7025 22.3202 54.0545 22.8851 53.3692 22.4709L53.4688 21.8181C53.0327 21.4791 52.5343 22.0566 52.2228 21.6047C52.3349 21.8432 52.3848 21.7804 52.0483 21.9562C52.2228 22.0189 52.5841 21.9562 52.8832 21.9562L52.1854 22.2575H53.2196C52.7586 22.4583 52.796 22.3955 52.933 22.6843C52.2975 22.8098 52.3225 22.2826 51.687 22.4458C51.4876 22.3328 51.687 22.1319 51.5125 21.9562C50.9642 22.1194 50.578 21.3661 50.1668 21.6674C50.0546 21.5796 50.3786 21.6674 50.3661 21.5168C50.0297 21.5168 49.7929 21.5168 49.6683 21.6549L49.9549 21.7679C49.7057 21.7679 49.631 21.9687 49.1699 21.7679C48.8709 21.8808 48.6839 22.1696 48.983 22.2198C48.8584 22.2198 48.6092 22.0315 48.7213 21.8557C47.9737 21.7804 48.2977 22.4834 47.6123 22.1194C47.6123 22.1194 47.5002 22.1194 47.6123 22.1194C47.6123 22.1194 47.7245 22.1194 47.6995 22.0315C47.5527 21.9909 47.3978 21.9909 47.251 22.0315C47.8865 22.0315 47.089 21.5168 47.8366 21.7051C47.8366 21.3662 47.2634 21.5796 47.0391 21.4289C46.6528 21.6172 46.9644 21.8934 46.765 22.044C46.765 21.9436 46.6279 21.9185 46.4535 21.8557L46.6155 22.1194C46.455 22.0872 46.2899 22.0872 46.1295 22.1194L46.441 22.044C46.1046 21.9687 45.6311 21.5545 45.033 21.7428C45.1949 21.6549 45.5189 21.4791 45.1326 21.3285C44.4847 21.4415 44.9831 21.2155 44.6342 21.0146C43.9863 21.0146 44.5096 21.4164 43.5626 21.2532C43.4629 21.2532 43.5626 21.3913 43.6623 21.454C43.1016 21.341 42.7651 21.454 42.2791 21.341C42.3539 21.341 42.3664 21.4164 42.2791 21.454C42.5195 26.3096 44.4669 30.9206 47.773 34.4619C51.0791 38.0033 55.5281 40.2439 60.324 40.783C65.1198 41.322 69.9496 40.1242 73.9491 37.404C77.9486 34.6837 80.8568 30.6185 82.1534 25.9357C81.3102 25.6952 80.4237 25.6523 79.5615 25.8101ZM62.9639 23.6132V24.015C62.6648 24.0903 62.7645 23.6635 62.9639 23.6132ZM73.9168 24.9565C74.0539 24.9565 74.2782 25.1071 74.5274 25.1573C74.4766 25.194 74.4179 25.218 74.3561 25.2276C74.2943 25.2372 74.2312 25.232 74.1717 25.2124C74.1123 25.1929 74.0583 25.1595 74.014 25.1151C73.9697 25.0706 73.9364 25.0163 73.9168 24.9565Z" fill="#93397C"/>
<path d="M43.0642 19.6589L42.8523 19.4706L43.3881 19.3702C43.3881 19.7342 44.0735 19.458 43.762 19.8849C44.7464 20.0983 45.3943 19.6463 46.2541 19.6463C46.0921 19.6463 46.1544 19.7217 46.117 19.7844C46.33 19.8304 46.55 19.833 46.764 19.7921C46.978 19.7511 47.1817 19.6674 47.3631 19.5459C47.2883 19.6589 47.1513 19.684 47.1513 19.7844C47.7743 19.8472 47.5376 19.5961 48.2478 19.5334C48.036 19.684 48.0858 19.7719 48.2478 19.8221C48.2478 19.684 48.3973 19.5961 48.5344 19.5585C47.9363 20.2991 49.2696 19.9476 48.8708 20.5376C48.8708 20.3744 50.0172 20.1485 49.7556 19.797H49.5562C49.5562 19.571 49.8054 19.684 49.9923 19.6966C50.1792 19.7091 50.2664 19.6966 50.0795 19.6966H49.9923C49.8926 19.6966 49.7805 19.6966 49.7805 19.797C50.7649 19.6338 51.7493 19.9853 52.8458 19.91C52.7461 19.9853 52.2975 20.0857 52.5592 20.1861C53.5092 20.315 54.474 20.2811 55.4127 20.0857C55.4127 20.6255 54.2414 20.0229 54.1666 20.5251C55.313 20.5251 56.5092 20.5251 57.8052 20.387C58.1291 21.2532 59.0512 20.2112 59.774 20.9519C59.774 20.6632 60.1353 20.613 60.5714 20.6632C60.3845 20.8766 60.8331 20.9394 60.6836 21.09C61.0948 20.8766 62.1789 20.9142 62.0543 21.4541C62.2287 20.9394 62.8393 21.5921 63.2006 21.2532C63.0845 21.1802 62.9865 21.0815 62.9141 20.9645L63.2879 21.1653C63.262 21.1977 63.2328 21.2271 63.2006 21.2532C63.6368 21.5043 64.2224 21.2532 64.7832 21.5043C64.6212 21.1277 65.3813 21.4038 65.618 21.2909C65.5557 21.2909 65.4186 21.2909 65.4436 21.3913C65.5806 21.7051 66.1538 21.203 66.4529 21.3913C66.7519 21.5796 66.3781 21.7177 66.6149 21.7679C66.6149 21.5294 67.5743 21.3285 67.8609 21.6675C67.7114 21.6675 67.699 21.7804 67.5868 21.8683C69.1942 21.6047 70.7892 22.2951 72.4216 21.8683L72.0976 22.2951C73.0446 22.9479 72.8078 21.6172 73.5929 21.7302C75.6987 22.0692 77.9043 22.8224 80.0101 22.5337C80.1596 22.3956 79.9229 22.3705 79.898 22.1696C80.0849 22.2324 80.1223 22.6215 80.3715 22.3705V22.1194C81.0194 22.609 82.0661 22.2073 82.8636 22.2324C82.8636 21.6675 82.9508 21.09 82.9508 20.5C82.9472 15.1297 80.8507 9.97552 77.1126 6.14698C73.3745 2.31844 68.2937 0.121662 62.964 0.0295094C57.6342 -0.0626428 52.4816 1.9572 48.6153 5.65426C44.749 9.35132 42.4781 14.43 42.2916 19.797C42.5433 19.7223 42.8024 19.676 43.0642 19.6589Z" fill="#93397C"/>
<path d="M124.258 22.8852C124.57 22.1822 124.046 22.1696 123.971 21.7051C124.33 21.7225 124.69 21.6973 125.043 21.6298C124.991 21.5596 124.957 21.4778 124.943 21.3913C124.32 20.9645 124.071 21.9562 123.224 21.7302C123.257 21.6778 123.275 21.6168 123.275 21.5545C123.275 21.4922 123.257 21.4312 123.224 21.3787C122.925 21.2909 122.725 21.7051 122.7 21.9939C122.563 21.5419 121.903 21.3034 121.641 21.5545C121.38 21.8056 121.504 22.132 121.018 22.1696L121.18 21.8181C120.632 21.6549 120.732 22.1822 120.395 22.1571C120.388 22.1651 120.38 22.1715 120.37 22.1759C120.36 22.1803 120.35 22.1826 120.339 22.1826C120.329 22.1826 120.318 22.1803 120.308 22.1759C120.299 22.1715 120.29 22.1651 120.283 22.1571C120.283 22.1571 120.358 22.1571 120.395 22.1571C120.433 22.1571 120.395 21.9186 120.308 21.8809C119.747 22.1445 119.76 22.3328 119.436 23.0233V22.5211C118.987 22.8977 118.19 23.6384 118.028 22.9731C118.352 23.9773 117.018 23.6761 116.582 23.7263C116.732 23.7263 116.719 23.4501 116.719 23.3371C115.909 24.1531 114.863 23.6384 113.941 23.789L113.679 23.086C113.193 23.1865 113.28 24.6552 112.732 24.6929L112.881 24.3163C112.193 24.5136 111.477 24.59 110.763 24.5422V24.0527C110.526 24.3163 110.177 24.3665 109.928 24.6301C109.143 23.5505 107.511 25.5465 106.19 24.3916V25.2955C105.741 25.2955 105.193 25.5591 104.944 24.9189H105.044C105.044 24.241 104.608 24.9189 104.308 24.831C104.109 24.9314 103.947 25.3833 104.146 25.4963C102.9 25.1699 101.218 25.8102 100.408 25.0695C99.2494 25.4336 98.4146 26.1742 97.1311 26.1742V26.0738C96.6825 25.9985 95.8103 25.7976 95.7729 25.1072C94.8633 25.308 94.3275 26.2872 93.2185 26.0236L93.4427 25.7599C93.1562 25.6344 92.7325 25.9859 92.6203 26.0612C92.5082 26.1366 92.6203 25.9106 92.6203 25.8227C92.3462 25.5968 92.2091 25.9734 92.0098 26.0487L92.0845 25.8102C91.1998 25.3708 89.8541 26.3123 88.7201 26.2119C88.932 26.1366 88.8074 25.8855 88.7201 25.7851C88.284 26.5383 87.013 26.3751 86.552 26.5508L86.8261 26.2621C85.9165 26.7391 86.0286 25.4838 85.1315 25.9608L85.6548 26.3876C85.519 26.3318 85.3669 26.3318 85.2312 26.3876C86.5766 30.9857 89.4809 34.9623 93.4378 37.6247C97.3947 40.287 102.153 41.4663 106.885 40.9569C111.616 40.4475 116.02 38.2819 119.329 34.8373C122.638 31.3927 124.643 26.8875 124.993 22.1069C124.736 22.3539 124.49 22.6137 124.258 22.8852ZM106.639 25.1072L106.838 24.9063H107.037L106.639 25.1072Z" fill="#B85065"/>
<path d="M86.4648 22.3454C86.8137 22.5713 86.0536 22.8099 86.5395 22.8726L87.5613 22.4081C88.5332 21.5545 90.2279 23.2116 91.4615 22.5713C91.4657 22.6246 91.4811 22.6764 91.5067 22.7232C91.5323 22.77 91.5674 22.8108 91.6099 22.8428C91.6523 22.8749 91.701 22.8975 91.7528 22.9091C91.8045 22.9207 91.8582 22.9211 91.9101 22.9103C91.9101 22.7722 91.8353 22.7094 91.7107 22.5462C92.4229 22.2675 93.1688 22.086 93.9287 22.0064C93.5674 22.3203 94.3025 22.2324 94.3524 22.6341C94.5767 22.3454 94.2029 22.2198 94.7013 21.9688C95.3981 21.9723 96.0907 22.078 96.7573 22.2826C96.9816 21.906 97.3056 21.9688 97.2931 21.5168C98.1155 21.4164 98.5392 21.1904 99.5734 21.09V21.2407C99.7977 20.6506 100.471 21.4541 100.633 21.1026C100.633 21.3034 100.52 21.4039 100.633 21.5545L101.069 21.3285C100.869 21.5294 100.795 22.0817 101.181 22.1069C101.542 21.6549 101.044 21.8432 101.181 21.4917L101.355 22.0064C101.654 21.9186 101.667 21.3034 101.293 21.1779C102.302 21.0649 103.274 20.6883 104.184 20.6632V21.0272C104.415 20.9149 104.669 20.8566 104.925 20.8566C105.182 20.8566 105.435 20.9149 105.667 21.0272C105.667 20.9143 105.766 20.7134 105.667 20.6004C106.19 20.0355 105.804 21.1779 106.377 20.6004C106.24 20.7511 106.041 20.8515 106.041 21.0649L107.199 20.4498C107.32 20.654 107.503 20.814 107.72 20.9066C107.937 20.9991 108.178 21.0194 108.408 20.9645C108.397 20.8826 108.361 20.806 108.305 20.7454C108.25 20.6847 108.177 20.6429 108.097 20.6255L108.408 20.4372L108.744 21.0272L109.156 20.4121V20.2866H109.255L109.181 20.4121L109.255 20.9268C109.592 20.7762 109.642 20.0732 109.928 20.0732C111.037 20.2364 110.85 20.4498 111.673 20.8389C111.673 19.8095 112.919 20.6883 112.919 19.9225C114.04 20.5125 115.411 19.8095 116.794 19.8095L116.694 19.91C117.342 20.2991 117.218 19.0187 117.866 19.1191L117.741 19.2949C118.613 19.7217 119.909 18.981 120.582 18.4035C120.458 18.5919 120.582 18.9182 120.831 18.8429C121.081 18.7676 120.507 18.1274 120.968 18.2655C120.881 18.3784 120.968 18.6044 121.093 18.5919L121.429 17.9893C122.573 18.2555 123.765 18.2253 124.894 17.9014C124.242 12.7316 121.659 8.00621 117.671 4.68717C113.683 1.36814 108.59 -0.295086 103.427 0.0360632C98.2651 0.367213 93.4221 2.66784 89.8841 6.46965C86.3462 10.2715 84.3793 15.2887 84.3838 20.5C84.3838 21.1904 84.3838 21.8809 84.4835 22.5588C85.1479 22.7298 85.8513 22.654 86.4648 22.3454Z" fill="#B85065"/>
<path d="M124.482 19.094C124.582 19.094 124.607 18.9057 124.482 18.73C124.329 18.7404 124.175 18.7404 124.021 18.73C124.246 18.9057 124.52 18.9685 124.482 19.094Z" fill="#B85065"/>
</g>
<defs>
<clipPath id="clip0_441_906">
<rect width="428" height="41" fill="white"/>
</clipPath>
</defs>
</svg>
